<?xml version="1.0" encoding="utf-8"?>
<!-- Generator: Adobe Illustrator 26.2.1, SVG Export Plug-In . SVG Version: 6.00 Build 0)  -->
<svg version="1.1" id="レイヤー_1" xmlns="http://www.w3.org/2000/svg" xmlns:xlink="http://www.w3.org/1999/xlink" x="0px"
	 y="0px" viewBox="0 0 128 128" style="enable-background:new 0 0 128 128;" xml:space="preserve">
<style type="text/css">
	.st0{fill:#FFFFFF;stroke:#362415;stroke-miterlimit:10;}
	.st1{fill:none;stroke:#231815;stroke-width:2;stroke-linecap:round;stroke-linejoin:round;}
	.st2{fill:#231815;}
	.st3{fill:none;stroke:#231815;stroke-width:5;stroke-miterlimit:10;}
</style>
<path class="st0" d="M152,134"/>
<path class="st1" d="M107.7,101.5H21.5c-2,0-3.5-1.6-3.5-3.5V30.1c0-2,1.6-3.5,3.5-3.5h86.2c2,0,3.5,1.6,3.5,3.5v67.9
	C111.3,99.9,109.7,101.5,107.7,101.5z"/>
<path class="st2" d="M75.9,45.8c6.4,8.1-33.1,17.1-24.9,4.4c3.6-5.5,27.8-9.7,25.2-2.3"/>
<path class="st2" d="M76.9,51.5l-0.4,0.4C68,57.7,60.2,59.5,51,57.3c2.7,6.1,7,21.5,13.5,19.5C69.7,75.3,78.1,58.6,76.9,51.5z"/>
<path class="st2" d="M94.1,44.5c-4.5,0.3-9.5,0-13.5,1.9c-0.3,1.2-0.4,2.4-0.2,3.6l0.6-0.2c5.9-1.3,15.8,1.4,14.1-4.6
	C94.8,44.6,94.5,44.6,94.1,44.5z"/>
<path class="st2" d="M49.2,63.4c-2.3-2.6-7.2-5-10.7-3.9l0,0c-4.8,1.5-4.8,6.8-4.8,11.3c0,2.4,1.7,7.2,3.9,8.4
	c1,1.2,2.7,1.5,4.1,0.9c1.4-0.5,0.2-2.2-0.7-3.7c-0.2-1.3-0.4-2.6-0.9-3.9l-1.2-9c2.1,1.1,3.2,6.1,3.4,8c0.2,1.6-0.4,4,0.3,5.2
	c0.9,1.7,2.9,1.7,4.4,0.9C50.9,75.3,52.3,66.8,49.2,63.4z"/>
<path class="st2" d="M87.3,61.4L87.3,61.4c-0.6-0.4-1.3-0.5-2.1-0.4c-2.1,0.4-4,1.7-5.1,3.5c-2.1,3.1-1.4,9.2,0.2,12.2
	c2.8,4.9,5.8-2.4,6.4-5.3C87.2,68.8,89.8,63.1,87.3,61.4z M89.9,60.9c-0.8,0.7-1,4.8-1,6.9c-0.2,1.7-0.5,4.1-1,5.4
	c-0.8,1.6-5,6.6-1.3,6.6c0.1,0,0.3,0,0.4,0.1c1.7,0.3,3.5,0,5-0.9c2-1.5,3.4-3.7,3.7-6.2c0.8-1.8,1.2-3.8,1.2-5.7
	C96.9,63.5,93.2,56.9,89.9,60.9z"/>
<rect x="10.5" y="21" class="st3" width="106.9" height="85.9"/>
</svg>
