<?xml version="1.0" encoding="utf-8"?>
<!-- Generator: Adobe Illustrator 26.2.1, SVG Export Plug-In . SVG Version: 6.00 Build 0)  -->
<svg version="1.1" id="レイヤー_1" xmlns="http://www.w3.org/2000/svg" xmlns:xlink="http://www.w3.org/1999/xlink" x="0px"
	 y="0px" viewBox="0 0 128 128" style="enable-background:new 0 0 128 128;" xml:space="preserve">
<style type="text/css">
	.st0{fill:#231815;}
</style>
<path class="st0" d="M114.1,71.4c-1.5-8-12.7-24.7-21.7-25.4c-3.2-0.7-6.6-0.1-9.3,1.8c-3.4,2-1.1,5,1.6,8c1.2,4.1,2.8,8.1,4.9,11.9
	L98,94.2c-6.3-2.7-11.3-17-12.9-22.7c-1.4-4.8-2.6-12.1-5.4-15.4c-3.7-4.6-9.9-3.7-13.9-0.3c-10.7,9.2-6.6,34.3,4.6,43.1
	c8.8,7,22.9,13.4,32.2,6.9C115.4,98.7,116.6,84.7,114.1,71.4z"/>
<path class="st0" d="M37.1,23v0.2c-1.6-1.4-3.7-2.2-5.8-2.1c-6.3,0.5-12.1,3.6-16.1,8.4C8,37.9,7.9,55.8,11.7,64.9
	c6.4,15.1,17.5-5,20.2-13.3C34.4,44.6,43.6,28.8,37.1,23z M44.9,22.4C42.2,24,40.3,36,39.6,42.2c-1,4.7-2.7,11.9-4.7,15.2
	c-2.9,4.5-16.7,17.3-6,18.6c0.4,0,0.7,0.2,1.1,0.3c4.9,1.5,10.2,1.1,14.9-1c6.4-3.6,11-9.6,12.8-16.7c2.9-5,4.8-10.5,5.5-16.2
	C64.1,32.3,55.6,11.8,44.9,22.4z"/>
</svg>
