<?xml version="1.0" encoding="utf-8"?>
<!-- Generator: Adobe Illustrator 26.2.1, SVG Export Plug-In . SVG Version: 6.00 Build 0)  -->
<svg version="1.1" id="レイヤー_1" xmlns="http://www.w3.org/2000/svg" xmlns:xlink="http://www.w3.org/1999/xlink" x="0px"
	 y="0px" viewBox="0 0 128 128" style="enable-background:new 0 0 128 128;" xml:space="preserve">
<style type="text/css">
	.st0{fill:#231815;}
</style>
<g id="レイヤー_2_00000132808877230365423820000015248777010446354879_">
	<g id="レイヤー_1-2">
		<path class="st0" d="M117.7,65.7c-3.6-4.2-8.9-6.7-14.5-6.7c-2.3,0-4.5,0.4-6.6,1.2v-8.5H12.1v45.4c0,12,9.7,21.7,21.7,21.7l0,0
			h41.1c10.3,0,19.2-7.3,21.2-17.4c2.2,0.9,4.6,1.4,7,1.4c5.6,0,10.9-2.5,14.5-6.7C125.1,87.3,125.1,74.4,117.7,65.7L117.7,65.7z
			 M107.9,87.5c-1.4,1.6-3,2.3-4.8,2.3c-1.7,0-3.3-0.8-4.8-2.3c-0.8-1-1.5-2.1-1.8-3.3v-6.6c0.4-1.2,1-2.3,1.8-3.3
			c1.4-1.6,3-2.3,4.8-2.3c1.7,0,3.3,0.8,4.8,2.3C111.1,78.1,111.1,83.7,107.9,87.5z"/>
	</g>
</g>
<path class="st0" d="M63.7,32.8c0,2.4-0.9,4.7-1.8,6.4c-0.4,0.7-0.8,1.4-1.3,2l-0.4,0.5l-0.1,0.1l0,0l0,0l0,0
	c-1.2,1.3-1,3.4,0.3,4.5c1.3,1.2,3.4,1,4.5-0.3c1-1.2,1.9-2.5,2.6-3.8c1.2-2.3,2.5-5.6,2.5-9.5c0-3.6-1.2-7.1-3.4-10
	c-2.1-2.9-2.6-5.4-2.6-7.6c0-1.7,0.4-3.4,1.1-5c0.2-0.5,0.5-1,0.7-1.4L66,8.4V8.3l0,0c1-1.4,0.7-3.4-0.8-4.5c-1.4-1-3.3-0.7-4.4,0.6
	c-2.2,3.1-3.3,6.9-3.3,10.7c0,3.4,1,7.4,3.9,11.3C63.2,28.8,63.7,30.9,63.7,32.8z"/>
<path class="st0" d="M47.7,32.8c0,2.4-0.9,4.7-1.8,6.4c-0.4,0.7-0.8,1.4-1.3,2l-0.4,0.5l-0.1,0.1l0,0l0,0l0,0
	c-1.2,1.3-1,3.4,0.3,4.5c1.3,1.2,3.4,1,4.5-0.3l0,0c1-1.2,1.9-2.5,2.6-3.8c1.2-2.3,2.5-5.6,2.5-9.5c0-3.6-1.2-7.1-3.4-10
	c-2.1-2.9-2.6-5.4-2.6-7.6c0-1.7,0.4-3.4,1.1-5c0.2-0.5,0.5-1,0.7-1.4L50,8.4V8.3l0,0c1-1.4,0.7-3.4-0.8-4.5
	c-1.1-0.8-3.1-0.6-4.1,0.8c-2.2,3.1-3.3,6.9-3.3,10.7c0,3.4,1,7.4,3.9,11.3C47.2,28.8,47.7,30.9,47.7,32.8z"/>
</svg>
