<?xml version="1.0" encoding="utf-8"?>
<!-- Generator: Adobe Illustrator 26.2.1, SVG Export Plug-In . SVG Version: 6.00 Build 0)  -->
<svg version="1.1" id="レイヤー_1" xmlns="http://www.w3.org/2000/svg" xmlns:xlink="http://www.w3.org/1999/xlink" x="0px"
	 y="0px" viewBox="0 0 128 128" style="enable-background:new 0 0 128 128;" xml:space="preserve">
<style type="text/css">
	.st0{fill:#FFFFFF;stroke:#362415;stroke-miterlimit:10;}
	.st1{fill:none;stroke:#231815;stroke-width:5;stroke-miterlimit:10;}
	.st2{fill:#231815;}
</style>
<path class="st0" d="M152,134"/>
<path class="st1" d="M8.6,110.3V52.5c0-4.6,3.7-8.3,8.3-8.3H80c4.6,0,8.3,3.7,8.3,8.3v57.8c0,4.6-3.7,8.3-8.3,8.3H16.9
	C12.3,118.6,8.6,114.9,8.6,110.3z"/>
<path class="st2" d="M62.4,87.3c7.7-14.9,15.3-29.8,23-44.7c2.7-5.2,5.4-10.4,9.3-14.6c3.5-3.7,7.9-6.4,12.2-9.1
	c4.8-3,9.6-5.9,14.4-8.9c0.7-0.4,1.5-0.9,2.4-0.7c1.4,0.4,1.8,2.4,1.7,3.9c-0.7,11.5-6.2,22.5-14.9,29.4c3.6,0.6,7.3,0.4,10.8-0.4
	C116.1,53.1,108,62.3,98,68.5c1,0.1,2,0.2,2.9,0.3c0,2.1-1.2,4.1-2.8,5.3c-1.6,1.3-3.5,2-5.4,2.7c-7.6,2.8-15.2,5.7-22.7,8.5
	C67.4,86.4,64.8,87.4,62.4,87.3z"/>
</svg>
