<?xml version="1.0" encoding="utf-8"?>
<!-- Generator: Adobe Illustrator 26.2.1, SVG Export Plug-In . SVG Version: 6.00 Build 0)  -->
<svg version="1.1" id="レイヤー_1" xmlns="http://www.w3.org/2000/svg" xmlns:xlink="http://www.w3.org/1999/xlink" x="0px"
	 y="0px" viewBox="0 0 128 128" style="enable-background:new 0 0 128 128;" xml:space="preserve">
<style type="text/css">
	.st0{fill:#FFFFFF;stroke:#231815;stroke-miterlimit:10;}
	.st1{fill:none;stroke:#231815;stroke-width:5;stroke-miterlimit:10;}
	.st2{fill:#231815;}
	.st3{fill:#FFFFFF;}
</style>
<path class="st0" d="M79.9,34.4"/>
<g id="XMLID_00000049216053168826807860000018432898425920071571_">
	<g>
		<path class="st1" d="M62.8,9.4c71.2,1.2,71.2,107.2,0,108.4C-9.3,117-7.6,11,62.8,9.4z"/>
	</g>
</g>
<path class="st2" d="M8.9,56.7C6.5,74.2,14,95.3,28.3,105.9c20.6,0,48.7,0,69.1,0c14-11.9,21.7-31.8,19.4-50.3
	C82.6,56.1,43,54.4,8.9,56.7L8.9,56.7z"/>
<path class="st3" d="M101.3,86.3c-2.3,2.6-3.7-2.3-6.5-0.9c-2.4-2.7,4.1-2.6,5.4-4.5c0.2-0.9-0.7-1.8-1.8-2c0.3-0.7,0.5-1.4,0.5-2.2
	c-1-0.7-2.2,0.1-2.6,0.9c-0.7,1.1,0.5,0.2,0.5,0.5c0.6-0.1-0.7,1.6,1,2.1c-0.1,0.3-1.2,0.7-1.4,0.9c-0.6,0-1.3,1-1.7,0
	c-0.8-0.9,1.6-2.5-0.4-1.9c-0.6-0.5,1.8-2.4,1.3-3.3c-0.3-0.4-1-0.6-0.8-1.4c4.1-1.1-1.7-3.6,2.4-4.7c-0.6-1.4-3-1.6-2.4-3.7
	c6.6-5.4,6.4,3.5,6.7,8.2C101,78.5,103,82.7,101.3,86.3 M104.3,71.1c0.9-1.7,0.4-3.9-0.4-5.4c-3.9-6-11.3-0.9-16.1,0.6
	C83.9,70.7,85.3,76.9,85,83c-0.2,1.7-1.7,3.4,0.4,4.8c3.8,0.3-1-14.4,1.7-17.8c2.1,0.8,2.9-3.4,5.4-2.4c2,2.2-1.3,3.4-2.7,4.4
	c0.4,0.1,0.7,0.6,1.3,0.4c1.4,2.4-2.4,1.5-3,3.3c0.5,0.7,2,0.3,1.9,1.5c3.9,2.3-1.7,4.2-1.3,7c1,2.1,1.4-1,2.4-0.9
	c0.8,0.8,0.3,2.1,0.4,3.1c-0.8,1.1-2.4,0.4-3.3,1.7c1.4,3.5,4.4-0.6,6.8-0.2c3-1.7,3.7,2.1,6.1,2.6c1.1,0.4,2.9,0.4,3.4-0.9
	C104.3,83.5,105.8,77.3,104.3,71.1"/>
<path class="st3" d="M60.2,68.3c1.6,2.6-3.6,3.8-0.8,6.4c-0.4,2.2-2.4,4.6-0.7,6.9c-1,2.8-4.6,8.4-6.6,3.5c5.6-6.2,0.3-4,0.4-7.1
	c0.8-2.2,4.1-2.3,4-5c-0.9-1.1-2.6-1.1-2.9-2.7C54.5,68.3,58.6,65.5,60.2,68.3"/>
<path class="st3" d="M43.7,77.3c-1.2,0.6-1-0.7-1.4-1.3c-0.1-1.1,1.2-1.8,2.1-1.1C44.5,75.8,44.2,76.7,43.7,77.3 M46.7,71.4
	c-2.3-1-5,2.3-6.9-0.5c-0.9,2.9,0.9,5.6,0,8.6c1,3.1,3.8-0.6,5.5,1.6c3.8-0.5,1.8-4.4,3.5-6.6C48.7,73.2,47.9,72.1,46.7,71.4"/>
<path class="st3" d="M72.3,77.7c-0.6-0.2-0.3-0.6-0.7-0.8c-0.2-2.2,1-3.1,2-0.8C73.9,77,73,77.7,72.3,77.7 M72.5,69.9
	c0.5,0,0.7,0.5,0.9,0.7c0,0.6,0.1,1.1-0.5,1.4C71.6,72.6,72,70.1,72.5,69.9 M79.7,82.7c-0.7-3.1-4.3-1.3-6.3-2.4
	c1.5-2.2,6.5-2.8,2.7-6.4c-5.2-1.2,2.1-2.2,1.3-4.7c-0.7-1.6-2.5-1.6-4-1.8c-1.4-0.7-0.1-2.1-0.7-2.9c-1.5-1.1-4.1-4.1-4.3-0.3
	c2,1.6,1.6,10.1-1,11.5C67,73.4,68.1,71,67.3,69c-0.5-1.2-1.6-3.6-3.4-2.7c0.4,1.6,2.8,3.5,0.9,5c-1.2,0.9-2.6-1.7-2.9,0.4
	c0.7,1.4,2.1,2,3.4,2.5c0.7,1-0.6,1.7-0.5,2.7c-0.9-1.1-2.2-2.3-4-1.9c-0.2,1,1.1,2.1,1.6,2.8c1.9,2.3-3.3,2-2.5,4.2
	c1.1,1.4,3-0.8,4.3-1.1c-0.2,2.1-3.9,4.6-3.8,6.4c5,0.6,5.7-4.3,6.2-8c0.8-0.9,1.3-2.1,2.1-2.9c1.4,4.9-1,10.5,2.3,14.5
	c1.2-0.2,2.4-0.8,3.4-1.6c-0.8-2-2-3.8-2.7-5.8C73.5,79.8,80.1,89.8,79.7,82.7"/>
<path class="st3" d="M32.3,82c-0.3-1.8,1.4-3.4,2-5.1C34,78.4,34.3,81.5,32.3,82 M36.5,72.1c0.1-1.9,1.8-3.3,1.1-5.5
	c-0.9-1.5-2.7-3.1-4.4-1.8c1.8,4.2,0.6,9.3-4,10.8c4.1,1.6,0.3,4.4,0,7.2c-0.9,1.3-2,3.2-3.6,3.8c-0.9-2.1,2.6-3.1,2.7-5.3
	c-0.6-0.1-1.5-0.2-1.7-0.9c0.4-1.1,1.8-1.1,1.6-2.5c-4.1-2.2,2.1-4.4,0.5-7.1c-2,0.4-3.9,1.7-5.9,1.8c-1.1-0.2-1.6,1-1.3,2
	c0.1,1.9,2.2,0.2,3.1,1.6c0.3,1.3-0.7,1.8-1.5,2.5c-0.6,1.3,0.7,1.9,1.3,2.7c1.1,2.7-2.5,3.8-3.8,5.2c0.5,1.7,2.5,1.3,4,0.8
	c4.2,5.6,4-3.9,7.5-4.2c1,0.6,0.6,3.2,2.3,3.1c1.1-0.1,2-0.9,2.2-1.9C36.4,80.1,42,75.1,36.5,72.1"/>
</svg>
