<svg xmlns="http://www.w3.org/2000/svg" viewBox="0 0 271 298"><defs><style>.cls-1{fill:#362514;fill-rule:evenodd;}</style></defs><g id="レイヤー_2" data-name="レイヤー 2"><g id="レイヤー_1-2" data-name="レイヤー 1"><path id="パス_1" data-name="パス 1" class="cls-1" d="M254.52,261.12H169.35c-.25,20.64-15.7,37.15-34.51,36.88-18.45-.27-33.36-16.63-33.6-36.88H16.12c-7.16-.19-13.37-5.48-15.33-13A21.2,21.2,0,0,1,5.9,227.59C23,213.5,33.07,191.44,33.15,168V112.1C33.16,50.18,78.92,0,135.35,0S237.48,50.2,237.49,112.1V168c.08,23.45,10.17,45.51,27.25,59.6a18.69,18.69,0,0,1,5.11,20.49C267.89,255.64,261.68,260.93,254.52,261.12Z"/></g></g></svg>