<svg xmlns="http://www.w3.org/2000/svg" viewBox="0 0 291.67 356.66"><defs><style>.cls-1{fill:#231815;}</style></defs><g id="レイヤー_2" data-name="レイヤー 2"><g id="レイヤー_1-2" data-name="レイヤー 1"><path class="cls-1" d="M163.42,91.94c0,7.45-2.66,14.65-5.54,19.94a54.74,54.74,0,0,1-3.91,6.21l-1.21,1.57-.28.35h0l0,0h0a10,10,0,0,0,15,13.25,67.36,67.36,0,0,0,8.07-11.92c3.86-7.18,7.92-17.34,7.94-29.45A52.44,52.44,0,0,0,173,60.81c-6.39-8.92-8.15-16.7-8.19-23.52a39.4,39.4,0,0,1,3.38-15.66,37.94,37.94,0,0,1,2.28-4.45l.67-1,.13-.19h0A10,10,0,0,0,155.27,4a58.91,58.91,0,0,0-10.42,33.29c0,10.59,3.15,23.07,12,35.23C161.86,79.55,163.38,85.86,163.42,91.94Z"/><path class="cls-1" d="M113.42,91.94c0,7.45-2.66,14.65-5.54,19.94a53.36,53.36,0,0,1-3.91,6.21l-1.21,1.57-.28.35h0l0,0h0a10,10,0,0,0,15,13.25,67.36,67.36,0,0,0,8.07-11.92c3.86-7.18,7.92-17.34,7.94-29.45A52.44,52.44,0,0,0,123,60.81c-6.39-8.92-8.15-16.7-8.19-23.52a39.4,39.4,0,0,1,3.38-15.66,37.94,37.94,0,0,1,2.28-4.45l.67-1,.13-.19h0A10,10,0,0,0,105.27,4,58.91,58.91,0,0,0,94.85,37.29c0,10.59,3.15,23.07,12,35.23C111.86,79.55,113.38,85.86,113.42,91.94Z"/><path class="cls-1" d="M0,336.66c0,11,24.21,20,54.08,20H210.92c29.87,0,54.08-9,54.08-20v-10H0Z"/><path class="cls-1" d="M278.71,187.36a44.69,44.69,0,0,0-33.5-15.52A42.79,42.79,0,0,0,230,174.66V155H35V260a50,50,0,0,0,50,50h95a50,50,0,0,0,49-40.08,42.81,42.81,0,0,0,16.21,3.23,44.69,44.69,0,0,0,33.5-15.52,54.11,54.11,0,0,0,0-70.27Zm-22.5,50.42c-3.27,3.63-7,5.35-11,5.37s-7.73-1.74-11-5.37a21.43,21.43,0,0,1-4.21-7.66V214.87a21.51,21.51,0,0,1,4.21-7.66c3.27-3.63,7-5.35,11-5.37s7.73,1.74,11,5.37a24.12,24.12,0,0,1,0,30.57Z"/></g></g></svg>