<svg xmlns="http://www.w3.org/2000/svg" xmlns:xlink="http://www.w3.org/1999/xlink" viewBox="0 0 88.62 52.67"><defs><style>.cls-1{fill:none;}.cls-2{clip-path:url(#clip-path);}.cls-3{fill:#191210;}</style><clipPath id="clip-path"><rect class="cls-1" width="88.63" height="52.67"/></clipPath></defs><g id="レイヤー_2" data-name="レイヤー 2"><g id="レイヤー_1-2" data-name="レイヤー 1"><g class="cls-2"><g id="グループ_1356" data-name="グループ 1356"><path id="パス_795" data-name="パス 795" class="cls-3" d="M65.1,29.9h9.46A14,14,0,0,0,78.29,2.35,2.66,2.66,0,0,0,77.57.78,2.67,2.67,0,0,0,75.68,0H4.24A2.68,2.68,0,0,0,1.56,2.68h0A31.84,31.84,0,0,0,4.61,15.44,47.89,47.89,0,0,0,18.33,33a40.42,40.42,0,0,0,8.49,5.15H0C0,43.82,5.57,49,14.59,52.67H65.33c9-3.71,14.59-8.85,14.59-14.52H53.05c.69-.3,1.38-.58,2.05-.93a42.81,42.81,0,0,0,10-7.32m6.72-8.11a42.29,42.29,0,0,0,5.33-11.36,6,6,0,0,1-2.59,11.44h-2.8l.06-.08"/></g></g></g></g></svg>