<svg xmlns="http://www.w3.org/2000/svg" xmlns:xlink="http://www.w3.org/1999/xlink" viewBox="0 0 559.97 124.98"><defs><style>.cls-1{fill:none;}.cls-2{clip-path:url(#clip-path);}.cls-3{fill:url(#名称未設定グラデーション_40);}.cls-4{fill:url(#名称未設定グラデーション_40-2);}.cls-5{fill:url(#名称未設定グラデーション_40-3);}.cls-6{fill:url(#名称未設定グラデーション_40-4);}.cls-7{fill:url(#名称未設定グラデーション_40-5);}.cls-8{fill:url(#名称未設定グラデーション_40-6);}.cls-9{fill:url(#名称未設定グラデーション_40-7);}.cls-10{fill:url(#名称未設定グラデーション_40-8);}.cls-11{fill:url(#名称未設定グラデーション_40-9);}.cls-12{fill:url(#名称未設定グラデーション_40-10);}.cls-13{fill:url(#名称未設定グラデーション_40-11);}.cls-14{fill:url(#名称未設定グラデーション_40-12);}.cls-15{fill:url(#名称未設定グラデーション_40-13);}.cls-16{fill:url(#名称未設定グラデーション_40-14);}.cls-17{fill:url(#名称未設定グラデーション_40-15);}.cls-18{fill:url(#名称未設定グラデーション_40-16);}.cls-19{fill:url(#名称未設定グラデーション_40-17);}.cls-20{fill:url(#名称未設定グラデーション_40-18);}.cls-21{fill:url(#名称未設定グラデーション_40-19);}.cls-22{fill:url(#名称未設定グラデーション_40-20);}.cls-23{fill:url(#名称未設定グラデーション_40-21);}.cls-24{fill:url(#名称未設定グラデーション_40-22);}.cls-25{fill:url(#名称未設定グラデーション_40-23);}.cls-26{fill:url(#名称未設定グラデーション_40-24);}.cls-27{fill:url(#名称未設定グラデーション_40-25);}.cls-28{fill:url(#名称未設定グラデーション_40-26);}.cls-29{fill:url(#名称未設定グラデーション_40-27);}.cls-30{fill:url(#名称未設定グラデーション_40-28);}.cls-31{fill:url(#名称未設定グラデーション_40-29);}.cls-32{fill:url(#名称未設定グラデーション_40-30);}.cls-33{fill:url(#名称未設定グラデーション_40-31);}.cls-34{fill:url(#名称未設定グラデーション_40-32);}.cls-35{fill:url(#名称未設定グラデーション_40-33);}.cls-36{fill:url(#名称未設定グラデーション_40-34);}.cls-37{fill:url(#名称未設定グラデーション_40-35);}.cls-38{fill:url(#名称未設定グラデーション_40-36);}.cls-39{fill:url(#名称未設定グラデーション_40-37);}.cls-40{fill:url(#名称未設定グラデーション_40-38);}.cls-41{fill:url(#名称未設定グラデーション_40-39);}.cls-42{fill:url(#名称未設定グラデーション_40-40);}</style><clipPath id="clip-path" transform="translate(0 -0.47)"><rect class="cls-1" width="559.97" height="125.44"/></clipPath><linearGradient id="名称未設定グラデーション_40" x1="-791.76" y1="605.91" x2="-792.54" y2="604.67" gradientTransform="matrix(559.97, 0, 0, -124.98, 443892.44, 75708.91)" gradientUnits="userSpaceOnUse"><stop offset="0" stop-color="#362514" stop-opacity="0.65"/><stop offset="1" stop-color="#362514"/></linearGradient><linearGradient id="名称未設定グラデーション_40-2" x1="-782.78" y1="547.26" x2="-783.56" y2="546.01" gradientTransform="matrix(24.33, 0, 0, -3.93, 19412.62, 2168.55)" xlink:href="#名称未設定グラデーション_40"/><linearGradient id="名称未設定グラデーション_40-3" x1="-781.69" y1="546.13" x2="-782.47" y2="544.88" gradientTransform="matrix(21.82, 0, 0, -3.86, 17504.21, 2127.84)" xlink:href="#名称未設定グラデーション_40"/><linearGradient id="名称未設定グラデーション_40-4" x1="-779.74" y1="546.05" x2="-780.52" y2="544.8" gradientTransform="matrix(18.4, 0, 0, -3.86, 14613.01, 2123.36)" xlink:href="#名称未設定グラデーション_40"/><linearGradient id="名称未設定グラデーション_40-5" x1="-780.15" y1="546.11" x2="-780.92" y2="544.86" gradientTransform="matrix(18.95, 0, 0, -3.86, 14912.61, 2193.97)" xlink:href="#名称未設定グラデーション_40"/><linearGradient id="名称未設定グラデーション_40-6" x1="-780.58" y1="546.87" x2="-781.35" y2="545.62" gradientTransform="matrix(19.71, 0, 0, -3.91, 15624.77, 2156.38)" xlink:href="#名称未設定グラデーション_40"/><linearGradient id="名称未設定グラデーション_40-7" x1="-778.51" y1="546.45" x2="-779.29" y2="545.2" gradientTransform="matrix(16.74, 0, 0, -3.88, 13218.08, 2141.43)" xlink:href="#名称未設定グラデーション_40"/><linearGradient id="名称未設定グラデーション_40-8" x1="-778.49" y1="546.51" x2="-779.27" y2="545.26" gradientTransform="matrix(16.72, 0, 0, -3.89, 13127.07, 2142.42)" xlink:href="#名称未設定グラデーション_40"/><linearGradient id="名称未設定グラデーション_40-9" x1="-778.66" y1="546.2" x2="-779.44" y2="544.95" gradientTransform="matrix(16.98, 0, 0, -3.87, 13648.06, 2194.98)" xlink:href="#名称未設定グラデーション_40"/><linearGradient id="名称未設定グラデーション_40-10" x1="-777.03" y1="564.49" x2="-777.8" y2="563.24" gradientTransform="matrix(15.11, 0, 0, -5.5, 11987.39, 3186.92)" xlink:href="#名称未設定グラデーション_40"/><linearGradient id="名称未設定グラデーション_40-11" x1="-776.65" y1="546.29" x2="-777.43" y2="545.04" gradientTransform="matrix(14.74, 0, 0, -3.87, 11757.38, 2131.15)" xlink:href="#名称未設定グラデーション_40"/><linearGradient id="名称未設定グラデーション_40-12" x1="-777.37" y1="549.93" x2="-778.15" y2="548.68" gradientTransform="matrix(15.49, 0, 0, -4.12, 12516.44, 2346.15)" xlink:href="#名称未設定グラデーション_40"/><linearGradient id="名称未設定グラデーション_40-13" x1="-778.41" y1="546.33" x2="-779.19" y2="545.09" gradientTransform="matrix(16.53, 0, 0, -3.87, 13078.74, 2135.35)" xlink:href="#名称未設定グラデーション_40"/><linearGradient id="名称未設定グラデーション_40-14" x1="-777.63" y1="547.01" x2="-778.41" y2="545.77" gradientTransform="matrix(15.67, 0, 0, -3.92, 12276.05, 2160.64)" xlink:href="#名称未設定グラデーション_40"/><linearGradient id="名称未設定グラデーション_40-15" x1="-775.01" y1="546.32" x2="-775.79" y2="545.07" gradientTransform="matrix(13.33, 0, 0, -3.87, 10486.59, 2201.62)" xlink:href="#名称未設定グラデーション_40"/><linearGradient id="名称未設定グラデーション_40-16" x1="-774.99" y1="546.25" x2="-775.76" y2="545.01" gradientTransform="matrix(13.31, 0, 0, -3.87, 10420.4, 2202.08)" xlink:href="#名称未設定グラデーション_40"/><linearGradient id="名称未設定グラデーション_40-17" x1="-774.97" y1="546.05" x2="-775.75" y2="544.8" gradientTransform="matrix(13.3, 0, 0, -3.86, 10727.86, 2123.37)" xlink:href="#名称未設定グラデーション_40"/><linearGradient id="名称未設定グラデーション_40-18" x1="-774.97" y1="546.16" x2="-775.75" y2="544.91" gradientTransform="matrix(13.3, 0, 0, -3.86, 10758.57, 2192.65)" xlink:href="#名称未設定グラデーション_40"/><linearGradient id="名称未設定グラデーション_40-19" x1="-774.63" y1="546.32" x2="-775.41" y2="545.07" gradientTransform="matrix(13.04, 0, 0, -3.87, 10463.97, 2198.86)" xlink:href="#名称未設定グラデーション_40"/><linearGradient id="名称未設定グラデーション_40-20" x1="-774.73" y1="549.72" x2="-775.51" y2="548.47" gradientTransform="matrix(13.15, 0, 0, -4.1, 10520.64, 2270.54)" xlink:href="#名称未設定グラデーション_40"/><linearGradient id="名称未設定グラデーション_40-21" x1="-775.55" y1="549.84" x2="-776.32" y2="548.6" gradientTransform="matrix(13.79, 0, 0, -4.11, 10987, 2343.96)" xlink:href="#名称未設定グラデーション_40"/><linearGradient id="名称未設定グラデーション_40-22" x1="-776.91" y1="546.72" x2="-777.69" y2="545.48" gradientTransform="matrix(15.07, 0, 0, -3.9, 11892.06, 2219.21)" xlink:href="#名称未設定グラデーション_40"/><linearGradient id="名称未設定グラデーション_40-23" x1="-769.03" y1="565.81" x2="-769.81" y2="564.56" gradientTransform="matrix(9.9, 0, 0, -5.67, 7769.62, 3227.58)" xlink:href="#名称未設定グラデーション_40"/><linearGradient id="名称未設定グラデーション_40-24" x1="-772.21" y1="549.86" x2="-772.99" y2="548.61" gradientTransform="matrix(11.44, 0, 0, -4.11, 9333.5, 2341.55)" xlink:href="#名称未設定グラデーション_40"/><linearGradient id="名称未設定グラデーション_40-25" x1="-772.47" y1="546.21" x2="-773.24" y2="544.96" gradientTransform="matrix(11.61, 0, 0, -3.87, 9238.75, 2195.92)" xlink:href="#名称未設定グラデーション_40"/><linearGradient id="名称未設定グラデーション_40-26" x1="-772.83" y1="546.79" x2="-773.6" y2="545.54" gradientTransform="matrix(11.83, 0, 0, -3.9, 9534.22, 2151.9)" xlink:href="#名称未設定グラデーション_40"/><linearGradient id="名称未設定グラデーション_40-27" x1="-773.28" y1="545.73" x2="-774.05" y2="544.49" gradientTransform="matrix(12.15, 0, 0, -3.84, 9533.06, 2114.48)" xlink:href="#名称未設定グラデーション_40"/><linearGradient id="名称未設定グラデーション_40-28" x1="-773.56" y1="546.88" x2="-774.34" y2="545.63" gradientTransform="matrix(12.25, 0, 0, -3.91, 9790.79, 2218.77)" xlink:href="#名称未設定グラデーション_40"/><linearGradient id="名称未設定グラデーション_40-29" x1="-773.67" y1="551.97" x2="-774.45" y2="550.73" gradientTransform="matrix(12.41, 0, 0, -4.27, 10097.57, 2375.33)" xlink:href="#名称未設定グラデーション_40"/><linearGradient id="名称未設定グラデーション_40-30" x1="-772.19" y1="541.89" x2="-772.96" y2="540.65" gradientTransform="matrix(11.48, 0, 0, -3.62, 9203.95, 2042.07)" xlink:href="#名称未設定グラデーション_40"/><linearGradient id="名称未設定グラデーション_40-31" x1="-768.73" y1="549.81" x2="-769.51" y2="548.56" gradientTransform="matrix(9.75, 0, 0, -4.11, 7778.81, 2274.21)" xlink:href="#名称未設定グラデーション_40"/><linearGradient id="名称未設定グラデーション_40-32" x1="-769.09" y1="546.06" x2="-769.87" y2="544.82" gradientTransform="matrix(9.92, 0, 0, -3.86, 8096.14, 2125.41)" xlink:href="#名称未設定グラデーション_40"/><linearGradient id="名称未設定グラデーション_40-33" x1="-769.11" y1="548.86" x2="-769.89" y2="547.61" gradientTransform="matrix(9.92, 0, 0, -4.04, 7848.38, 2302.64)" xlink:href="#名称未設定グラデーション_40"/><linearGradient id="名称未設定グラデーション_40-34" x1="-769.08" y1="545.97" x2="-769.86" y2="544.72" gradientTransform="matrix(9.91, 0, 0, -3.85, 7822.57, 2188.26)" xlink:href="#名称未設定グラデーション_40"/><linearGradient id="名称未設定グラデーション_40-35" x1="-769.59" y1="551.03" x2="-770.37" y2="549.78" gradientTransform="matrix(10.15, 0, 0, -4.2, 8208.65, 2394.5)" xlink:href="#名称未設定グラデーション_40"/><linearGradient id="名称未設定グラデーション_40-36" x1="-764.34" y1="548.59" x2="-765.12" y2="547.35" gradientTransform="matrix(8.22, 0, 0, -4.02, 6362.52, 2294.59)" xlink:href="#名称未設定グラデーション_40"/><linearGradient id="名称未設定グラデーション_40-37" x1="-755.47" y1="551.86" x2="-756.24" y2="550.61" gradientTransform="matrix(6.24, 0, 0, -4.26, 5093.14, 2431.8)" xlink:href="#名称未設定グラデーション_40"/><linearGradient id="名称未設定グラデーション_40-38" x1="-636.87" y1="563.19" x2="-637.64" y2="561.94" gradientTransform="matrix(1.48, 0, 0, -5.34, 1475.18, 3111.5)" xlink:href="#名称未設定グラデーション_40"/><linearGradient id="名称未設定グラデーション_40-39" x1="-770.9" y1="560.41" x2="-771.68" y2="559.16" gradientTransform="matrix(10.76, 0, 0, -5.03, 8341.21, 2924.43)" xlink:href="#名称未設定グラデーション_40"/><linearGradient id="名称未設定グラデーション_40-40" x1="-764.3" y1="545.9" x2="-765.08" y2="544.66" gradientTransform="matrix(8.21, 0, 0, -3.85, 6306.6, 2132.36)" xlink:href="#名称未設定グラデーション_40"/></defs><g id="レイヤー_2" data-name="レイヤー 2"><g id="レイヤー_1-2" data-name="レイヤー 1"><g class="cls-2"><g id="グループ_1391" data-name="グループ 1391"><path id="パス_1177" data-name="パス 1177" class="cls-3" d="M558.13,110.12c-.47.55,0,1.11,0,1.7s-.27,1.18,0,1.79.88,1,1.15,1.56a10.18,10.18,0,0,1,.63,1.78,4.22,4.22,0,0,1,0,1.87c-.12.55-.83.9-1.29,1.46s-.41,1.43-1.05,1.86c-.73,0-1.64-.54-2.38-.54s-1.49-.29-2.22-.28-1.45.92-2.19.93-1.47-.16-2.21-.15-1.47,0-2.21,0-1.48-.1-2.22-.08-1.47.28-2.21.29-1.49-.47-2.23-.45-1.47.21-2.21.22-1.48.34-2.22.34-1.48-.68-2.23-.68-1.48.74-2.22.73-1.48-.4-2.22-.42-1.48-.22-2.22-.25-1.5.4-2.25.37-1.43-.69-2.16-.74-1.49,0-2.23,0-1.51.19-2.25.11-1.38-.63-2.11-.69-1.46,0-2.18,0-1.45-.25-2.17-.29-1.51.76-2.23.73-1.41-.68-2.14-.71-1.46.24-2.18.22-1.44-.44-2.16-.46-1.45,0-2.18,0-1.44-.22-2.17-.23-1.47.8-2.19.78-1.44-.2-2.17-.21-1.44-.45-2.16-.47h-2.18c-.74,0-1.49.4-2.23.38s-1.47-.63-2.21-.64-1.49.37-2.23.37-1.48.07-2.22.07-1.48-.45-2.22-.45-1.48.49-2.23.49l-2.22,0c-.74,0-1.48-.27-2.22-.27s-1.48.38-2.22.38-1.49-.65-2.23-.65-1.48.62-2.22.62-1.48-.52-2.22-.52-1.49.39-2.23.39-1.44-.18-2.15-.12-1.38.33-2.08.44-1.37.31-2.06.47-1.38.29-2.07.46-1.35.4-2,.58-1.56-.22-2.24-.06-1.37,1-2.1,1.08a9.31,9.31,0,0,1-2.41.14,6.52,6.52,0,0,1-2.36-.67,10.05,10.05,0,0,1-1.91-1.52c0-.66.81-1.47.81-2.12s-.7-1.32-.7-2,.77-1.32.77-2-.56-1.32-.56-2,.39-1.32.39-2-.27-1.32-.27-2-.52-1.32-.52-2,.43-1.33.43-2-.43-1.33-.43-2,1-1.33,1-2,0-1.59,0-2.26c-.73-.19-1.75-.55-2.47-.73s-1.75.51-2.48.36-1.38-.68-2.13-.8-1.53,0-2.28-.15-1.43-.75-2.19-.81-1.57.4-2.33.38-1.51,0-2.27,0-1.52,0-2.28,0-1.39.19-2.09.26-1.35.4-2.05.49-1.45-.23-2.15-.14L413,98.1c-.69.08-1.36.34-2.06.41s-1.37.35-2.07.4-1.41.21-2.11.24-1.43-.27-2.13-.27-1.4-.22-2.1-.26-1.43-.18-2.15-.22-1.46,0-2.18,0-1.48.35-2.2.32-1.42-.42-2.15-.44-1.45.29-2.17.29-1.47-.83-2.19-.81S388,98,387.31,98s-1.41.43-2.13.52-1.35.47-2.06.6-1.57-.09-2.32,0-1.46.46-2.21.53-1.51.18-2.27.21-1.52-.18-2.28-.17-1.51.28-2.27.28-1.51-.21-2.27-.22-1.51-.42-2.26-.42-1.51.37-2.26.38-1.55-.48-2.3-.44-1.41,1-2.16,1.07-1.46.16-2.21.28-1.63-.6-2.37-.5-1.37.78-2.11.86-1.53-.13-2.27-.06-1.46.39-2.2.44-1.47.36-2.21.4-1.56-.83-2.3-.8-1.47.6-2.21.62-1.5,0-2.24,0-1.5-.39-2.25-.39-1.48.86-2.23.86-1.49-.23-2.24-.24-1.49-.14-2.24-.15-1.48-.49-2.23-.5-1.5.44-2.24.43-1.49-.24-2.24-.25-1.49-.15-2.23-.16-1.5.44-2.25.43-1.49-.24-2.23-.24-1.5-.16-2.24-.15-1.49.42-2.23.43-1.5-.19-2.24-.17S309.78,101,309,101s-1.49.69-2.24.71-1.5.26-2.26.28-1.54-.73-2.3-.71-1.49.61-2.24.63-1.52-.22-2.28-.2-1.52-.37-2.28-.36-1.5.23-2.26.24-1.51,0-2.26,0-1.5.53-2.26.54-1.51.27-2.27.28-1.51-.25-2.27-.25-1.51-.13-2.27-.13-1.51.36-2.27.35-1.5-.63-2.25-.64-1.51-.07-2.27-.09-1.5,0-2.26,0-1.49-.26-2.24-.3-1.5-.17-2.25-.21-1.55.42-2.31.36-1.48-.3-2.23-.36-1.49-.2-2.24-.26-1.52.14-2.27.09-1.47-.4-2.22-.44-1.55.56-2.3.52-1.49-.27-2.24-.3-1.47-.68-2.22-.71-1.52.27-2.27.25-1.5-.17-2.25-.19-1.5-.09-2.25-.1-1.51.09-2.26.09-1.5,0-2.26,0-1.5-.27-2.25-.27-1.5.75-2.26.75-1.5-.21-2.25-.21-1.51-.41-2.26-.4-1.5.31-2.25.32-1.5.26-2.25.27-1.5-.12-2.26-.11l-2.25,0c-.75,0-1.5-.65-2.26-.64s-1.5.6-2.25.6-1.5-.06-2.25-.06-1.5-.51-2.25-.51-1.51.7-2.26.7-1.49-.5-2.24-.52-1.5-.23-2.25-.24-1.52.66-2.27.64-1.51,0-2.26,0-1.47-.22-2.22-.2-1.47.07-2.21.13-1.55-.32-2.29-.24-1.36.86-2.1,1-1.52-.09-2.26,0-1.47.23-2.21.32-1.54-.27-2.28-.2-1.43.71-2.17.75-1.51.15-2.26.15-1.53,0-2.28-.07-1.4-.62-2.14-.68-1.47,0-2.21,0-1.46-.2-2.2-.24-1.47-.1-2.21-.13-1.47-.2-2.21-.21-1.48.53-2.22.54-1.47-.28-2.21-.25-1.5-.16-2.23-.09-1.36.78-2.08.88-1.43.2-2.14.34-1.54.13-2.28.24-1.55-.07-2.3,0-1.47.49-2.22.54-1.57-.73-2.33-.7-1.48.76-2.24.77-1.51.19-2.27.19-1.5-.65-2.26-.66-1.52.63-2.27.63-1.5-.6-2.26-.6-1.5.33-2.26.34-1.51-.19-2.27-.16-1.49.21-2.24.26-1.74-.21-2.49-.13c-.17.59,0,1.44-.12,2s-.67,1.11-.83,1.7-.48,1.17-.63,1.76.15,1.27,0,1.87-.67,1.15-.76,1.75-.19,1.22-.24,1.83.59,1.23.59,1.85.2,1.18.26,1.79-.72,1.29-.6,1.9.58,1.14.76,1.75,0,1.16.24,1.75a10.74,10.74,0,0,0-1.13.62c-.37.24-.68.52-1.2.86-.75,0-1.41-.1-2.17-.1s-1.49.67-2.25.68-1.51-.63-2.27-.61-1.48.57-2.24.59-1.49.21-2.24.22-1.52-.44-2.27-.43-1.51-.22-2.27-.21-1.49.69-2.24.71-1.52-.33-2.27-.32-1.5.42-2.26.43-1.52-.61-2.28-.6-1.5.52-2.26.52-1.51.19-2.27.19-1.51-.56-2.27-.57-1.52.32-2.27.31-1.53.21-2.29.19-1.47-.8-2.23-.82-1.54.46-2.3.42l-2.27-.1c-.76,0-1.5-.2-2.26-.26s-1.53.06-2.28,0-1.47-.28-2.22-.33-1.51.17-2.26.12-1.47-.33-2.22-.37-1.48-.2-2.23-.23-1.5.17-2.25.15-1.47-.68-2.22-.7-1.52.61-2.27.6-1.5.1-2.24.08-1.49-.12-2.24-.13-1.49-.37-2.24-.37-1.49-.31-2.24-.31-1.5.67-2.25.66-1.5,0-2.24,0-1.49-.48-2.24-.49-1.5.07-2.24.06-1.49-.38-2.24-.4-1.53.14-2.29.12-1.52.11-2.29.1S33.8,123,33,123s-1.52,0-2.28,0-1.53.43-2.29.43-1.52-.32-2.28-.32-1.52-.11-2.28-.11-1.53-.17-2.29-.16-1.52.1-2.28.11-1.52.54-2.28.54-1.53.09-2.29.1-1.53-.92-2.29-.92-1.52.93-2.28.93-1.52-.1-2.28-.09-1.53-.67-2.29-.67-1.39,0-2.15,0c-.78-.37-1.69-.27-2.13-.74s-.28-1.32-.43-2-.86-1.26-.79-2a21.21,21.21,0,0,1,.55-2.08c.6,0,1.4.29,2,.29s1.42.11,1.94.11c.62-.45.84-1.3,1.3-1.79a9.67,9.67,0,0,0,1-1.72,18.51,18.51,0,0,0,1.24-1.67c.26-.63.8-1.17,1-1.79s-.25-1.47,0-2.09.8-1.12,1-1.73.48-1.23.73-1.84.56-1.2.81-1.81,1.07-1.05,1.32-1.66.1-1.34.36-1.95.82-1.12,1.08-1.73.39-1.25.66-1.86.15-1.33.41-1.94.74-1.14,1-1.75.54-1.2.82-1.8.66-1.17,1-1.77.07-1.38.37-2,.79-1.13,1.1-1.72,1.37-.88,1.7-1.47.64-1.16,1-1.74-.1-1.49.25-2.06.65-1.19,1-1.75S25.12,76,25.5,75.4s1-1.14,1.42-1.69c-.34-.59-.73-1.29-1.05-1.84s-.45-1.26-.78-1.83-1.31-.88-1.64-1.45-.61-1.15-.92-1.72-.43-1.19-.73-1.75-.21-1.28-.51-1.83-.72-1.08-1-1.64-1.43-.8-1.73-1.37.33-1.48,0-2-1.12-.92-1.42-1.49-.79-1-1.09-1.6.15-1.42-.16-2-.78-1.05-1.1-1.61-.88-1-1.2-1.56-1.06-.93-1.38-1.48.12-1.43-.21-2-.93-1-1.27-1.53-.43-1.19-.76-1.74-.75-1.05-1.07-1.6-1.22-.86-1.53-1.42-.75-1-1.07-1.61-.5-1.15-.82-1.7.2-1.46-.13-2-.75-1.07-1.09-1.6-.75-1.07-1.11-1.6S1.78,31,1.48,30.47a13.24,13.24,0,0,1-.57-1.75c-.21-.57.06-1.23,0-1.81S0,25.76,0,25.15s1.11-1,1.27-1.65-.18-1.24.09-1.82c.67.29,1.48.32,2.19.63s1.15.65,1.92,1c.67,0,1.34.49,2.05.46s1.33-.62,2-.66,1.41.28,2.11.25,1.38-.25,2.08-.25,1.37.46,2.07.49,1.43-.43,2.12-.34a18.82,18.82,0,0,1,2.11.2c.69.17,1.2.92,1.89,1s1.44.18,2.13.26,1.44.11,2.14.16,1.43,0,2.14,0,1.43-.57,2.13-.56,1.4.54,2.11.55,1.42-.29,2.13-.28,1.4.25,2.11.28,1.21-.27,1.91-.22a7.89,7.89,0,0,0,.6-1.62,10.67,10.67,0,0,0,.47-1.85c0-.64-.37-1.25-.42-1.88s.76-1.35.65-2-.44-1.23-.59-1.86-.71-1.18-.85-1.8-.42-1.24-.54-1.86.27-1.32.2-1.95A17.07,17.07,0,0,1,38.34,8a9.13,9.13,0,0,1,.08-1.65h1.9c.74,0,1.47-.43,2.18-.43s1.46.29,2.18.29,1.43.11,2.14.11,1.49-.66,2.23-.66,1.49.11,2.24.11,1.48.42,2.23.42,1.49-.51,2.23-.51,1.49.78,2.23.78,1.49-.07,2.24-.07,1.48.1,2.23.1,1.49,0,2.23,0,1.49-.8,2.24-.8,1.48.53,2.23.53,1.49.38,2.23.38,1.49-.15,2.23-.15,1.49.07,2.24.07h2.23c.74,0,1.49-.32,2.23-.32S81.8,6,82.54,6s1.49.11,2.24.11S86.27,5.9,87,5.9s1.49.16,2.23.16,1.49.32,2.23.32,1.49-.09,2.24-.09,1.48,0,2.23,0,1.49-.44,2.23-.44,1.49.45,2.24.45,1.48.19,2.23.19,1.49-.4,2.23-.4,1.49.5,2.23.5,1.49-.37,2.24-.37S110.82,6,111.57,6s1.49-.18,2.23-.18,1.49.61,2.24.61,1.48-.75,2.23-.75,1.49.65,2.23.65,1.49-.59,2.23-.59,1.49.44,2.24.44,1.48,0,2.23,0,1.49-.23,2.23-.23,1.49-.12,2.24-.12l2.23,0c.74,0,1.49-.12,2.23-.12s1.49.5,2.23.5h2.24c.74,0,1.48.15,2.23.15s1.49.08,2.23.08,1.49-.33,2.23-.33,1.49-.46,2.24-.46,1.49.13,2.23.13H154c.75,0,1.49.21,2.23.21s1.49-.31,2.24-.31,1.48.51,2.23.51,1.49.2,2.23.2S164.41,6,165.15,6s1.49.43,2.24.43,1.48-.35,2.23-.35,1.49.19,2.23.19,1.49.2,2.24.2,1.48-.39,2.23-.39,1.51.26,2.26.26,1.46-.32,2.2-.4,1.42-.48,2.15-.56,1.43-.47,2.16-.54,1.54.38,2.28.32,1.49.09,2.22,0,1.45-.35,2.2-.39,1.48,0,2.21,0,1.49.16,2.23.13,1.48,0,2.22,0,1.46-.34,2.2-.36,1.47-.38,2.21-.39,1.48.13,2.22.13,1.48.24,2.22.23,1.47.28,2.21.29,1.48,0,2.22,0,1.48-.33,2.22-.32l2.21,0c.74,0,1.48.19,2.22.2s1.49-.69,2.23-.68,1.47.2,2.21.22,1.48.06,2.22.07,1.47.49,2.21.5,1.47.15,2.21.16,1.49-.52,2.23-.51,1.47.27,2.21.27,1.48.41,2.22.41,1.48-.83,2.22-.83,1.48.55,2.21.55,1.48.17,2.22.16,1.47-.61,2.21-.62,1.48.28,2.22.27,1.48.34,2.21.33,1.46-.54,2.2-.56,1.48,0,2.21,0,1.48.24,2.22.22,1.46-.2,2.2-.22,1.48.13,2.21.12,1.46-.54,2.2-.55S264.13,4,264.86,4s1.49.53,2.23.52,1.46-.43,2.2-.44,1.47.2,2.21.18S273,4,273.71,4s1.48.54,2.21.53,1.48-.16,2.21-.16h2.21c.74,0,1.47.3,2.21.3s1.47-.55,2.21-.55,1.47.52,2.21.53S288.45,4,289.18,4s1.47.2,2.21.2,1.47.15,2.21.17,1.46.33,2.2.34,1.47,0,2.21,0,1.47-.17,2.21-.15,1.46.23,2.2.25,1.49-.39,2.23-.35,1.48,0,2.21,0,1.46.32,2.19.36l2.2.13c.73,0,1.53-.43,2.27-.39s1.47.34,2.21.38,1.47.31,2.22.34l2.23.1c.75,0,1.51-.33,2.26-.3s1.45.67,2.2.7,1.51-.47,2.26-.44,1.47.34,2.22.36,1.5-.17,2.24-.15,1.49,0,2.24,0,1.47.41,2.22.43,1.51-.57,2.25-.56,1.47.81,2.22.82,1.5-.77,2.25-.76S344,6,344.76,6s1.49.44,2.23.45,1.49,0,2.24,0,1.49-.67,2.24-.66,1.49.15,2.24.15,1.48.19,2.23.19,1.49.22,2.23.22,1.49-.14,2.24-.14l2.23,0c.75,0,1.49-.54,2.24-.54s1.49.79,2.24.78,1.48-.2,2.23-.2S370.84,6,371.58,6s1.49.26,2.24.25S375.3,6,376.05,6l2.24,0c.74,0,1.49,0,2.23,0s1.49-.34,2.23-.34,1.5.63,2.24.62,1.49-.35,2.23-.36,1.49.43,2.24.43,1.49-.6,2.23-.6,1.49.08,2.24.08,1.49.33,2.23.33,1.49-.35,2.24-.35,1.49.06,2.23.06,1.49.32,2.24.32,1.49-.49,2.23-.49,1.49.4,2.23.4,1.5-.32,2.24-.31,1.49-.14,2.24-.13,1.48.35,2.23.36,1.5-.37,2.24-.36,1.49.07,2.24.09,1.52.58,2.29.56,1.53-.12,2.29-.16,1.47-.63,2.23-.69,1.6.61,2.36.54,1.43-.88,2.18-1,1.6.54,2.37.47,1.5-.31,2.25-.37,1.49-.43,2.26-.47,1.54.09,2.3.06,1.41.29,2.12.29,1.41,0,2.12,0,1.44-.61,2.15-.58,1.4.28,2.11.31,1.39.6,2.1.63,1.43-.07,2.14-.06,1.41-.61,2.11-.62,1.4.07,2.1,0,1.43.16,2.13.08,1.31-.5,2-.63,1.5-.4,2.24-.51,1.61.25,2.37.17,1.53,0,2.3-.09,1.51-.23,2.27-.27,1.54.14,2.3.13,1.52-.23,2.29-.23,1.52.38,2.29.39,1.53-.35,2.3-.34S480,3,480.79,3s1.51.28,2.28.29,1.52-.15,2.29-.16,1.54.56,2.3.54,1.42-.17,2.13-.31,1.25-.82,1.93-.95,1.58.49,2.27.35,1.29-.57,2-.7,1.39-.17,2.09-.25,1.38.16,2.1.15a15.59,15.59,0,0,1,2,0c.78.09,1.62-.24,2.41-.19s1.57.59,2.36.6S508.57,2,509.35,2L511.73,2c.78,0,1.57-.28,2.35-.3s1.54,0,2.32,0c.5-.31.85-.62,1.3-.91s.93.06,1.41-.24c.89.6,1.8.38,2.44.78a3.67,3.67,0,0,1,1.21,1.44,4,4,0,0,1,.71,1.72,4.06,4.06,0,0,1-.74,1.72,10,10,0,0,0-1.18,1.76,10.36,10.36,0,0,0-.5,2,15.43,15.43,0,0,0,0,2c0,.68-.08,1.36,0,2s.28,1.37.28,2a13.12,13.12,0,0,1-.18,2c.53.6.37,1.49.87,2s1.7.67,2.21,1.26.72,1.26,1.26,1.87c.72.16,1.34.74,2.08.87s1.61-.34,2.35-.23,1.52-.08,2.26,0,1.41.69,2.16.76,1.44.46,2.19.53,1.56-.47,2.31-.41l2.24.18c.75.06,1.49.21,2.23.28s1.47.32,2.22.41,1.5.1,2.25.21,1.55-.07,2.29.05,1.27,1,2,1.15,1.46.23,2.18.41,1.4.42,2.11.64,1.8,0,2.5.26c-.17.65-.5,1.38-.6,1.95a4,4,0,0,1-.77,1.68c-.4.55-.25,1.39-.64,1.95s-1.43.78-1.82,1.34-.77,1.12-1.16,1.68S553,38,552.67,38.54s-.66,1.18-1,1.75-.12,1.4-.46,2-.84,1.09-1.15,1.68-1,1-1.3,1.64-.54,1.22-.79,1.84.11,1.38-.1,2-1.23,1.06-1.4,1.69-.2,1.28-.35,1.91-.54,1.22-.69,1.85.22,1.35.05,2-.67,1.17-.89,1.78-.24,1.29-.4,1.92-.65,1.17-1,1.73A15.63,15.63,0,0,0,542,63.81c-.26.55-.69,1.07-.91,1.64s.41,1.35.21,1.92-1,1-1.2,1.56,0,1.25-.23,1.8-.94,1-1.24,1.48.14,1.41,0,2a4.05,4.05,0,0,0-.26,1.72,5,5,0,0,0,.24,1.8c.25.53.09,1.31.49,1.9s1.07,1,1.42,1.54.78,1.12,1.1,1.71.57,1.2.87,1.8.5,1.24.81,1.83.86,1.09,1.2,1.68.77,1.11,1.14,1.69,1,1,1.45,1.5.29,1.38.76,1.9.6,1.11,1.13,1.58a10.42,10.42,0,0,0,.46,1.91c.2.66,1.31,1,1.61,1.68s.58,1.21.93,1.81-.05,1.54.34,2.13,1.58.79,2,1.38.18,1.44.52,2,.92.83,1.33,1.36.44,1.07.89,1.61.69.82,1.13,1.38m-512.5-9.9c.77,0,1.62-.51,2.4-.51s1.55.4,2.32.4,1.56-.33,2.33-.33,1.55.06,2.33.06,1.55.06,2.33.06,1.55.44,2.32.44,1.55-.71,2.32-.71,1.55.58,2.33.58,1.54.31,2.31.31,1.55-.9,2.32-.9,1.55.19,2.33.19,1.46,0,2.2,0,1.46.13,2.19.14,1.47-.24,2.2-.24,1.46.51,2.19.51,1.47-.18,2.2-.18,1.47-.32,2.2-.32,1.46.7,2.19.7,1.47-.74,2.2-.74,1.47.38,2.2.37,1.47.17,2.2.16,1.46-.47,2.19-.49,1.48.58,2.21.56,1.5-.19,2.26-.22,1.49-.37,2.24-.41,1.54.43,2.29.39,1.5-.21,2.25-.26,1.51.07,2.26,0,1.43-.93,2.18-1,1.56.53,2.31.48,1.48-.39,2.23-.44,1.54.3,2.29.25,1.5-.17,2.24-.22,1.52.1,2.27,0,1.42-.9,2.16-.92,1.48.13,2.22.12,1.48.42,2.21.42,1.47,0,2.21,0,1.48-.42,2.21-.41,1.46.63,2.2.64,1.48-.37,2.22-.36,1.47-.07,2.2-.08,1.49.43,2.22.41,1.45-.53,2.18-.57,1.46-.1,2.2-.15,1.5.15,2.23.07,1.38-.55,2.11-.66,1.6.41,2.32.27,1.33-.87,2.08-1,1.57.33,2.33.27,1.47-.5,2.23-.52,1.51.16,2.27.16,1.52-.15,2.27-.12,1.52,0,2.28,0,1.51.12,2.26.17,1.52.06,2.28.12,1.44.71,2.19.76,1.57-.54,2.33-.54,1.51-.1,2.28-.15,1.5-.2,2.26-.29,1.5-.22,2.26-.32,1.64.5,2.4.39,1.4-.8,2.15-.9,1.62.46,2.38.38,1.47-.6,2.23-.64,1.53.29,2.3.3,1.49-.2,2.23-.19,1.48-.4,2.22-.39,1.47.39,2.21.4,1.48-.34,2.22-.33,1.46.82,2.2.83,1.47.13,2.21.14l2.22,0c.74,0,1.49-.86,2.23-.86s1.47.4,2.21.41,1.48-.18,2.21-.18,1.47.59,2.21.6,1.49-.5,2.22-.5H223c.74,0,1.47.12,2.21.13s1.48,0,2.22,0,1.48-.24,2.21-.24,1.48.41,2.22.42l2.21,0c.74,0,1.48-.16,2.22-.16s1.48-.2,2.21-.19,1.48-.1,2.22-.09,1.47.33,2.21.34,1.48.22,2.22.23,1.47.11,2.21.12,1.48-.1,2.21-.09,1.49-.41,2.23-.4,1.47.37,2.2.39,1.49-.31,2.23-.29,1.45.86,2.19.88,1.48-.13,2.22-.11,1.49-.27,2.22-.25,1.49-.24,2.23-.21,1.46.4,2.2.43,1.49-.25,2.23-.22,1.48,0,2.22,0,1.46.29,2.2.32,1.49-.2,2.22-.18,1.47.27,2.2.29,1.46.47,2.19.5,1.49-.31,2.23-.29,1.45.57,2.19.6,1.51-.86,2.25-.83l2.21,0c.73,0,1.44.87,2.18.89s1.49-.56,2.23-.55,1.46.32,2.2.34,1.48-.24,2.22-.23,1.47-.23,2.21-.22,1.46.92,2.2.93,1.48-.53,2.22-.53,1.48.08,2.21.08,1.48.42,2.21.42,1.48-.86,2.21-.86,1.48.22,2.22.22,1.47.12,2.21.11,1.48.45,2.22.44,1.47-.49,2.2-.51,1.48.19,2.22.17,1.48.08,2.21.06,1.46-.5,2.2-.53,1.48.18,2.22.16,1.48.09,2.22,0,1.44-.48,2.18-.51,1.48.14,2.22.1,1.51.41,2.24.36,1.42-.73,2.16-.78,1.44-.31,2.18-.36,1.54.68,2.28.62,1.41-.68,2.15-.73,1.5.14,2.23.08,1.51.29,2.25.22,1.45-.32,2.18-.39,1.51-.08,2.27-.12,1.5-.57,2.27-.59,1.53-.27,2.3-.26,1.53.26,2.3.27,1.53.16,2.29.17,1.54-.34,2.3-.33,1.52.61,2.29.61,1.53,0,2.3,0,1.53-.09,2.3-.14,1.56.08,2.32,0,1.55-.11,2.31-.24,1.36-.78,2.11-.95a18.75,18.75,0,0,1,2.12-.18c.7-.09,1.4-.08,2.12-.11s1.4-.29,2.11-.28,1.4.32,2.11.35,1.45-.59,2.16-.56,1.4.27,2.1.3,1.4.68,2.1.68,1.43-.32,2.13-.35,1.45.06,2.17,0,1.44-.05,2.15-.11,1.42-.24,2.14-.31,1.42-.18,2.13-.25,1.46.12,2.17,0,1.34-.88,2.06-.93,1.46.11,2.17.07,1.46.35,2.17.33,1.51-.33,2.27-.34,1.52-.26,2.28-.25,1.52.13,2.28.14l2.27,0c.76,0,1.49.7,2.25.72s1.55-.54,2.3-.51,1.52.12,2.27.16,1.49.59,2.24.62,1.57-.63,2.33-.59,1.47.58,2.23.62,1.5.29,2.25.34,1.57-.6,2.33-.56,1.52,0,2.27,0,1.5.28,2.26.32L449,94c.76,0,1.48.52,2.24.55s1.56-.62,2.31-.6,1.5.35,2.26.37h2.27c.76,0,1.51.47,2.27.47s1.51-.59,2.27-.6,1.51-.1,2.27-.12,1.5,0,2.26-.07,1.54.46,2.3.42,1.5-.19,2.26-.21,1.51.06,2.27,0,1.51,0,2.27,0,1.5.14,2.26.14,1.52-.54,2.27-.53,1.51.32,2.27.33,1.51.26,2.26.27,1.52-.62,2.28-.62,1.5,0,2.26,0,1.67.11,2.5.11a6.88,6.88,0,0,1,2.44.63,14.35,14.35,0,0,0,2.26.35c.75.19,1.31,1.11,2.07,1.2s1.61-.58,2.37-.56,1.51-.17,2.27-.2,1.57.58,2.34.54,1.48-.74,2.25-.77,1.56.53,2.32.53,1.55-.3,2.31-.24,1.7-.93,2.42-1.45c0-.61-.17-1.23-.17-1.83s.47-1.2.47-1.79-.52-1.19-.52-1.79.29-1.29.29-1.9c-.73,0-1.53-.17-2.19-.17s-1.39.38-2.06.38-1.13-.28-1.82-.28c0-.73.09-1.22.09-1.92s-.59-1.48-.59-2.26c.75,0,1.75-.26,2.47-.26s1.47.74,2.2.74,1.49-.28,2.25-.28c0-.64.39-1.31.39-2s-.06-1.29-.06-1.94,0-1.29,0-1.93.11-1.29.11-1.94-.77-1.28-.77-1.93.76-1.29.76-1.93-.65-1.29-.65-1.93-.22-1.29-.22-1.93.56-1.29.56-1.93.3-1.29.3-1.93-.78-1.29-.78-1.93.42-1.28.42-1.93-.46-1.29-.46-1.93.74-1.28.74-1.93-.6-1.28-.6-1.92-.22-1.29-.22-1.93.65-1.28.65-1.92-.41-1.29-.4-1.93-.29-1.28-.29-1.92.89-1.28.89-1.92-.62-1.28-.62-1.93,0-1.28,0-1.92.12-1.28.12-1.92-.2-1.28-.2-1.92.18-1.28.18-1.91-.32-1.28-.32-1.92.29-1.28.29-1.92.16-1.28.16-1.92a13.8,13.8,0,0,0-.35-1.92c-.09-.66.38-1.49,0-2.05s-1.35-.42-2.15-.79c-.74,0-1.42.07-2.18,0s-1.52-.17-2.27-.21-1.5-.42-2.25-.45-1.27-.25-2-.29c0-.78-.74-1.28-.74-1.91s.08-1.65.08-2.37c.76,0,1.9.31,2.64.31S508,19,508.73,19s1.5.35,2.24.35,1.49-.17,2.24-.17,1.45-.13,2.2-.13c0-.62.22-1.21.22-1.83s-.07-1.23-.07-1.84-.51-1.25-.51-1.86.37-1.23.37-1.85.13-1.22.13-1.84.2-1.22.2-1.83-.18-1.34-.18-2c-.79,0-1.69.5-2.46.52s-1.55.12-2.32.13-1.58-.89-2.35-.88-1.54.94-2.31.94-1.57-.14-2.34-.17-1.47-.77-2.23-.86a17.14,17.14,0,0,0-2.26-.14c-.74,0-1.39.73-2.1.85s-1.56-.22-2.27-.07-1.23.9-1.94,1.06-1.47.18-2.18.29a20.73,20.73,0,0,1-2.22-.17c-.76,0-1.51-.1-2.27-.08s-1.5.48-2.26.49-1.51.19-2.26.2-1.51-.31-2.27-.3-1.53-.28-2.28-.26-1.49.68-2.25.7-1.51-.2-2.27-.16-1.5.1-2.25.15-1.5.06-2.25.13-1.57-.37-2.32-.29-1.44.55-2.18.65-1.54-.09-2.29,0S460,9,459.21,9s-1.48.42-2.23.45-1.52-.14-2.27-.13l-2.26,0c-.76,0-1.51-.09-2.27-.09s-1.51.48-2.26.48-1.51-.17-2.26-.16-1.53-.69-2.28-.67-1.52,0-2.27.08-1.45.81-2.2.86-1.48.19-2.23.27-1.57-.33-2.32-.23-1.53.06-2.27.2a16.89,16.89,0,0,1-1.89.29,9.9,9.9,0,0,1-1.88-.18c-.75-.06-1.57.34-2,0a2.12,2.12,0,0,0-1.72-.62,6.1,6.1,0,0,0-1.9.6,2,2,0,0,1-1.76-.06,8.29,8.29,0,0,0-2.11-.18c-.65,0-1.28.8-2,.85s-1.37-.77-2-.77-1.46.48-2.19.49-1.46.18-2.19.18S409,10,408.31,10s-1.46.16-2.19.17-1.46.25-2.19.25-1.46.41-2.19.41-1.47-.73-2.2-.72-1.46.25-2.19.25-1.46-.22-2.19-.21-1.46.11-2.19.11-1.46.57-2.19.57-1.46.12-2.19.13-1.46-.11-2.19-.11-1.46-.8-2.2-.79-1.45.08-2.19.08-1.46.05-2.18.05-1.47.68-2.2.67-1.46-.2-2.19-.2-1.46-.38-2.19-.38-1.46.63-2.2.62-1.45-.86-2.18-.87-1.46.47-2.2.47-1.46.25-2.19.25-1.46-.16-2.19-.17-1.45-.53-2.18-.55-1.47.52-2.2.51-1.49-.38-2.25-.39-1.5.17-2.25.17-1.51-.47-2.26-.47-1.5.52-2.25.52-1.5.2-2.26.2-1.51-.61-2.26-.6-1.5.06-2.26.07l-2.25.06c-.75,0-1.5.1-2.26.11s-1.49.63-2.24.64-1.51-.51-2.26-.51-1.5.31-2.25.31-1.5-.21-2.26-.21-1.5.38-2.26.38-1.5-.11-2.25-.11-1.5-.18-2.25-.19-1.52.3-2.27.28-1.47-.8-2.22-.83-1.51.12-2.26.09-1.52.29-2.27.25-1.51,0-2.26,0-1.45-.53-2.2-.59-1.47-.27-2.22-.35-1.48-.18-2.23-.26-1.5-.08-2.24-.17-1.57.26-2.32.19-1.47-.4-2.23-.44-1.51-.19-2.26-.22-1.53.63-2.28.63S291.08,9,290.32,9s-1.51-.4-2.27-.39-1.49.55-2.25.56-1.54-.74-2.3-.71-1.5.12-2.26.14-1.51-.06-2.27,0l-2.26.08c-.76,0-1.5.81-2.26.81s-1.46-.53-2.2-.53-1.46-.38-2.19-.38-1.47.16-2.2.16-1.47-.08-2.2-.08h-2.2c-.74,0-1.47.32-2.2.32s-1.47.2-2.2.2S257.6,9,256.86,9s-1.46.19-2.2.19S253.2,9,252.46,9s-1.46-.32-2.2-.32-1.46.09-2.19.09-1.51,0-2.27.06-1.51.45-2.26.45-1.52-.44-2.28-.43-1.51-.17-2.27-.16-1.5.41-2.26.42-1.51-.49-2.27-.49S233,9,232.2,9.05s-1.51.16-2.27.15-1.51.18-2.27.17-1.5-.63-2.25-.65-1.54.71-2.3.68-1.47-.7-2.22-.73-1.5.53-2.24.53-1.48-.44-2.22-.42-1.48.08-2.22.12-1.45.32-2.19.37-1.45.23-2.19.29l-2.2.19c-.73.07-1.45.26-2.18.33s-1.54-.35-2.27-.29L201,10c-.73.06-1.48,0-2.21,0s-1.47,0-2.2,0-1.46.37-2.2.38-1.48.46-2.22.46-1.48-.13-2.22-.13l-2.22,0c-.74,0-1.48-.21-2.22-.21s-1.48.32-2.22.32-1.48-.51-2.22-.51-1.48-.2-2.22-.2-1.47.35-2.21.35-1.48-.43-2.22-.43-1.48.35-2.22.35-1.48-.18-2.22-.18-1.48-.2-2.22-.19-1.48.38-2.22.38-1.48-.25-2.22-.25-1.47.12-2.21.12-1.48.31-2.22.31-1.48.33-2.22.33-1.48-.53-2.22-.53-1.48-.2-2.22-.2-1.48.25-2.22.25-1.48-.07-2.21-.07-1.48-.23-2.22-.23-1.48-.07-2.22-.07-1.48.3-2.22.3-1.48.35-2.22.35-1.48-.15-2.22-.15-1.48-.25-2.22-.25S133,10,132.24,10s-1.47,0-2.21,0-1.48.34-2.22.34l-2.22,0c-.74,0-1.48-.16-2.22-.16s-1.48.71-2.22.71-1.48-.17-2.22-.17-1.48-.05-2.21-.05-1.49-.45-2.22-.45-1.48-.13-2.22-.13-1.48.54-2.22.54-1.48-.25-2.22-.25-1.48-.39-2.22-.39-1.48.87-2.22.87-1.48-.56-2.22-.56-1.47-.17-2.22-.17-1.47.6-2.21.6-1.48-.31-2.22-.31S93.05,10,92.31,10s-1.48.52-2.22.52-1.48,0-2.22,0-1.48-.27-2.22-.27-1.48.18-2.22.18-1.43-.17-2.17-.17-1.47.52-2.22.52-1.47,0-2.21,0-1.48-.55-2.22-.55-1.48.4-2.22.4-1.48-.21-2.22-.22-1.48.24-2.22.24-1.48-.55-2.22-.55-1.48.14-2.21.14H61.3c-.74,0-1.48-.31-2.22-.31s-1.48.55-2.22.55S55.39,10,54.65,10s-1.48.65-2.22.65c-.91,0-1.82-.19-2.69-.19s-1.92-.11-2.74-.11c-.43.62-1.13,1-1.4,1.44a6.2,6.2,0,0,0-.76,1.75,8.74,8.74,0,0,0,.1,1.84c0,.48-.08,1.26,0,2,.73.08,1.77-.17,2.5-.09s1.47.08,2.2.16,1.43.4,2.16.48,1.46.17,2.2.24,1.54-.36,2.26-.28,1.42.42,2.15.49,1.42.39,2.14.47l2.18.23c.72.08,1.8-.09,2.51,0,0,.83-.66,1.72-.66,2.36s.52,1.59.52,2.34c-.8-.09-1.79-.35-2.56-.37s-1.58.2-2.36.2-1.6,0-2.38,0a14.57,14.57,0,0,1-2.23-.74c-.72-.18-1.75.1-2.47-.25-.56-.27-1-1.16-1.73-1.18s-1.14.85-1.81,1.11-1.36.16-1.88.63-1.31.77-1.65,1.36c0,.63,0,1.36,0,2s.8,1.27.8,1.9-.17,1.26-.17,1.9-.22,1.26-.22,1.9-.25,1.27-.25,1.9.17,1.27.17,1.9,0,1.27,0,1.9.63,1.27.63,1.9-.93,1.27-.93,1.91.24,1.26.24,1.9.26,1.27.26,1.9-.32,1.27-.32,1.91.25,1.28.25,1.92,0,1.27,0,1.9,0,1.28,0,1.91.39,1.27.39,1.91-.76,1.28-.76,1.92.41,1.27.41,1.91-.51,1.28-.51,1.92.69,1.28.69,1.91-.11,1.28-.11,1.92-.4,1.28-.41,1.92.42,1.25.43,1.88-.05,1.25,0,1.87-.35,1.26-.35,1.89.57,1.26.56,1.88-.5,1.24-.55,1.87.28,1.28.19,1.9,0,1.28-.15,1.9-.68,1.17-.87,1.77,0,1.33-.23,1.93-.54,1.15-.78,1.78-1.09,1-1.33,1.66-.34,1.33-.59,2c.76,0,1.66-.48,2.4-.48s1.51.73,2.25.73,1.52-.75,2.27-.75S51,89,51.7,89s1.5-.18,2.25-.18,1.51-.3,2.25-.3,1.51.17,2.26.17S60,89,60.69,89s1.48,0,2.23,0c.18,0,.87.21.73.07,0,.71-.26,1.25-.26,1.88s-.54,1.06-.54,1.76H60.92c-.72,0-1.47.62-2.21.62s-1.47-.1-2.2-.1S55.05,93,54.31,93s-1.47.3-2.2.3-1.47.12-2.2.12-1.47-.47-2.2-.47-1.5-.12-2.22-.12a9.4,9.4,0,0,0-1.39,1.36,5,5,0,0,0-1.2,1.46,2.72,2.72,0,0,0,.29,1.77c.2.48.2,1.22.69,1.73a18,18,0,0,0,1.75,1.13m486-24.09c.33-.64.14-1.44.53-2.1s1.18-1.12,1.5-1.79a9,9,0,0,0,.4-2.12,13.19,13.19,0,0,1,.66-1.82c.24-.59.59-1.15.88-1.72s1.08-1,1.4-1.51-.12-1.42.19-2,1.22-.9,1.48-1.48a15.58,15.58,0,0,0,1-1.71c.18-.6-.72-1.36-.65-2a8.85,8.85,0,0,0,.24-1.92,3.7,3.7,0,0,0,1.86-3c0-.59-.35-1.17-.37-1.76s.57-1.15.76-1.71a15.74,15.74,0,0,1,.48-1.79c.26-.57.2-1.27.5-1.82s1.34-.83,1.63-1.39-.2-1.41.07-2,.9-.9,1.13-1.46.65-1,.89-1.56,0-.92.24-1.51c-.82,0-1.31-.51-2-.51s-1.57.15-2.27.15-1.62.3-2.35.3c-.4-.53-.32-1.29-.63-1.68A10.75,10.75,0,0,1,538.2,35c-.16-.3.36-.46.74-1.4.73,0,1.16-.73,1.91-.73s1.48.62,2.23.62,1.48-.29,2.23-.29,1.5.4,2.25.4,1.69-.17,2.44-.17c0-1,.16-1.81.16-2.29-.64-.23-1.83.19-2.48,0s-1.23-.55-1.9-.72-1.21-.73-1.89-.86-1.38-.22-2.08-.31-1.42.27-2.12.22-1.36-.68-2.07-.68-1.38.4-2.08.44a8.22,8.22,0,0,1-2.42-.23c-.76-.19-1.41-.85-2.17-1s-1.53.21-2.24.08-1.41-.21-2.12-.26a8.2,8.2,0,0,0-2.16-.17c-.67.14-1.07.7-1.67,1.12s-1.6.59-2,1.2c.4.63,1.47.88,2,1.19s1.06,1,1.76,1.1a14.49,14.49,0,0,0,2.17-.38,19.06,19.06,0,0,1,2.14.14,4.38,4.38,0,0,1,2.13.48c0,.66.08,1.31.08,1.86s-.07,1.33-.07,1.89a10.53,10.53,0,0,1-2.3.38c-.73,0-1.47-.61-2.2-.61s-1.41.65-2.11.8a4.67,4.67,0,0,0-3,2.12c0,.48.07,1,.07,1.71s-.85,1.21-.85,1.84.7,1.26.7,1.88-.76,1.26-.76,1.88.55,1.25.55,1.88-.39,1.25-.39,1.88.28,1.25.28,1.88.51,1.25.51,1.88-.42,1.25-.42,1.88.42,1.25.42,1.88-.94,1.25-.94,1.87-.12,1.26-.12,1.88,0,1.26,0,1.88,1,1.26,1,1.88-.46,1.25-.46,1.88.22,1.25.22,1.88-.68,1.25-.68,1.88.6,1.25.6,1.88,0,1.25,0,1.88-.13,1.25-.13,1.88.06,1.25.06,1.88.3,1.25.3,1.88-.48,1.25-.48,1.87,0,1.26,0,1.88.2,1.26.2,1.88.25,1.25.25,1.88.12,1.26.12,1.88-.38,1.25-.38,1.88-.24,1.25-.24,1.88-.12,1.25-.12,1.88.14,1.25.14,1.88.5,1.25.5,1.88-.45,1.17-.52,1.76.25,1.2.16,1.8-1.16,1-1.26,1.64.09,1.4,0,2c.68,0,1.69-.2,2.54-.2.69,0,1.44-.28,2.28-.28s1.38.32,2.21.32c-.54.79-.69,1.54-1.08,2.11-.53.78-1,1.55-1.42,2.15-.78,0-1.74-.19-2.5-.19s-1.55.26-2.32.26-1.55-.2-2.32-.2-1.55-.43-2.31-.43-1.55.36-2.32.36-1.53-.53-2.3-.54-1.53.9-2.3.9a5.46,5.46,0,0,1-1.34-1.05c0-.45.93-1.17.93-1.77s-.62-.89-.62-1.45c-.76,0-1.28-.24-2-.24s-1.26.25-2.11.25c-.44.46-.61,1.09-1.13,1.64s-1.78.44-2.29,1-.5,1.39-1,1.9c-.78-.13-1.57-.29-2.32-.36s-1.54-.54-2.3-.55-1.53.85-2.29.89-1.54-.12-2.3,0-1.54.08-2.29.22-1.65-.16-2.39,0-1.32.83-2.05,1-1.54.24-2.26.47-1.5.37-2.21.62-1.2.93-1.91,1.2-1.51.31-2.21.58-1.59.58-2.29.85a12.94,12.94,0,0,0,2.64.09c.82.06,1.62.26,2.44.3s1.46.55,2.2.57,1.5-.61,2.24-.6,1.49-.2,2.23-.2,1.47.8,2.22.8,1.48-.57,2.22-.57,1.48.25,2.23.25,1.48.4,2.22.4,1.48-.2,2.23-.22,1.48,0,2.22,0,1.47-.52,2.22-.52,1.48-.25,2.22-.25,1.49.26,2.23.26,1.48.15,2.22.16,1.5-.34,2.23-.31,1.46.64,2.2.68,1.47.09,2.21.13,1.48.06,2.22.12,1.44.31,2.18.37,1.45.22,2.19.3,1.55-.34,2.28-.24,1.48.35,2.24.43,1.52.2,2.28.25,1.55-.17,2.31-.13,1.51.34,2.27.36,1.54-.64,2.3-.64,1.52.19,2.28.18,1.55.6,2.31.58,1.53-.36,2.29-.38,1.54.08,2.3.06,1.53,0,2.29,0,1.52-.16,2.28-.18,1.53-.07,2.29-.08,1.72.19,2.47.19c1.21-1,1.12-1.88,1.62-2.3-.35-.6-.41-1.08-.75-1.67s-.32-1.46-.66-2.06c-.76-.12-1.72,0-2.52-.1s-1.83-.11-2.63-.24c.14-.64.4-1.5.58-2.12l.52-1.89c.18-.65,1.09-1.17,1.18-1.8s-.56-1.33-.63-2a8,8,0,0,0-.36-1.79c-.2-.57.1-1.34-.19-1.9s-1.36-.82-1.69-1.36-.16-1.32-.49-1.85-.51-1.25-.87-1.83-1.44-.82-1.8-1.4-.81-1.11-1.18-1.68-.53-1.24-.9-1.82-.75-1.14-1.11-1.71-.27-1.36-.64-1.94-1.45-.81-1.82-1.38-.44-1.28-.81-1.86-.78-1.12-1.15-1.69-.28-1.35-.65-1.92-1.35-.85-1.72-1.42-.17-1.31-.54-1.88M38.15,103.59c0-.62-.6-1.15-.6-1.77S38,100.6,38,100s-.38-1.23-.38-1.85.06-1.23.06-1.84.07-1.24.07-1.86.52-1.23.52-1.85-.83-1.24-.83-1.86.67-1.24.67-1.86.37-1.24.37-1.87-1-1.35-1-2c.38-.58.95-1.16,1.25-1.75a20,20,0,0,0,.86-1.81c.24-.63.59-1.22.77-1.85s0-1.32.16-2,.79-1.23.87-1.88-.1-1.33-.06-2-.32-1.32-.31-2,.82-1.31.82-2-.88-1.3-.89-2,.42-1.32.41-2,.2-1.31.21-2S41,62.69,41,62.08s.73-1.22.73-1.83-.17-1.22-.17-1.84-.37-1.22-.37-1.83.59-1.23.59-1.84-.16-1.22-.16-1.83.18-1.22.18-1.83-1-1.23-1-1.84.73-1.22.73-1.83-.35-1.22-.35-1.83.47-1.22.47-1.83-.09-1.22-.09-1.83.22-1.22.22-1.82S41,39.23,41,38.62a25.15,25.15,0,0,1-2.88-1.11c.29-.64,1.06-1.25,1.33-1.86s.54-1.28.82-1.9.09-1.42.37-2.05,1.23-1.26,1.5-1.88c-.68-.19-1.7-.19-2.32-.36s-1.35-.3-2-.47-1.14-.79-1.78-1-1.37.11-2-.07c-.47.32-1.13,1.13-1.74,1.13s-1.46-.28-2.19-.28-1.45.39-2.18.39-1.45-.65-2.18-.66-1.48.59-2.21.56-1.4-.6-2.12-.67-1.51.22-2.22.08-1.34-.42-2-.5-1.4,0-2.09,0-1.38,0-2.08,0-1.37,0-2.07,0-1.37.11-2.08.16S7.09,27.93,6.38,28c.29.7,1.31,1.26,1.77,1.7a5.72,5.72,0,0,0,1.79,1c.71.3,1.45.44,2.12.67a6.34,6.34,0,0,1,2.19,1.3c-.13.61-1.08,1.24-1.2,1.82s.44,1.3.32,1.87-1,1.09-1.12,1.65.29,1.23.18,1.78c.41.42.52,1.08,1,1.67s1,.87,1.45,1.45,1.2.83,1.59,1.4.36,1.26.73,1.84,1.08.92,1.44,1.5-.14,1.48.2,2,.56,1.17.9,1.74.64,1.12,1,1.7,1.58.76,1.9,1.34.22,1.31.53,1.89.82,1.07,1.13,1.65,0,1.4.27,2,1.15,1,1.44,1.56.6,1.17.89,1.76.44,1.23.72,1.82.62,1.16.89,1.75.81,1.11,1.07,1.7.08,1.35.32,1.94.48,1.21.71,1.79.68,1.21.89,1.8a17,17,0,0,1-1.15,1.75,15.06,15.06,0,0,0-1.15,1.6c-.4.59-1,1-1,1.59a8.5,8.5,0,0,1-.58,2,11.86,11.86,0,0,1-.89,1.87c-.28.64-.59,1.26-.93,1.87s-.35,1.39-.74,2-1.13,1-1.47,1.61a13.28,13.28,0,0,0-.52,2c-.24.63-1.41,1-1.67,1.64s-.34,1.3-.61,1.93-.21,1.36-.5,2-.27,1.35-.57,2-1,1.1-1.3,1.72-.3,1.34-.62,2-.55,1.21-.82,1.8A9.46,9.46,0,0,0,16,105.1a4.89,4.89,0,0,0,.24,1.86,4.42,4.42,0,0,0,.41,1.79c.75,0,1.42.4,2.17.4s1.49-.36,2.25-.36,1.47.52,2.23.52,1.49-.9,2.26-.9,1.89.17,2.66.17c0,.78-1,1.75-1,2.46s.55,1.58.51,2.36c-.71,0-1.59-.22-2.28-.22s-1.41.26-2.11.26-1.4.26-2.09.26-1.41-.91-2.11-.91-1.4.55-2.09.55-1.4-.07-2.08-.07-1.68-.33-2.36-.33c-.3.64.2,1.74-.09,2.35s-.83,1.13-1.13,1.78-.71,1.07-1,1.74c.8,0,1.45.44,2.12.44s1.52-.47,2.2-.47,1.49.21,2.2.21,1.49.12,2.23.12,1.48-.46,2.22-.46,1.49.22,2.23.22,1.48.15,2.22.15,1.47-.43,2.21-.43,1.48.2,2.23.2,1.48.49,2.22.49,1.48-.65,2.22-.65,1.49-.23,2.23-.23,1.48.78,2.22.78,1.48-.57,2.22-.57,1.48.26,2.23.26,1.48.42,2.22.42,1.48-.19,2.23-.19,1.48.05,2.22.05,1.48-.51,2.22-.51,1.48-.25,2.23-.25,1.48.26,2.22.26,1.48.13,2.22.13,1.49-.37,2.23-.37,1.48.6,2.22.6,1.48,0,2.23,0,1.48,0,2.22,0,1.48.19,2.22.19,1.48.09,2.23.09,1.48-.53,2.22-.53,1.32.12,2,.07,1.33,0,2,0a6.33,6.33,0,0,1,2,0c.68.24,1.25.73,1.94.9s1.58-.31,2.28-.19,1.36.4,2.08.46,1.4.73,2.13.75,1.47-.3,2.19-.32,1.47.09,2.19,0,1.46,0,2.18-.08,1.43-.22,2.16-.28,1.44-.14,2.16-.19,1.46.18,2.18.15,1-.39,1.69-.39c-.73-.2-1-.22-1.79-.38s-1.36-.74-2.1-.89-1.57,0-2.31-.14-1.56,0-2.3-.17-1.46-.4-2.2-.55l-2.24-.43c-.73-.16-1.26-1-2-1.14s-1.66.19-2.38,0-1.47-.46-2.23-.61-1.44-.79-2.21-.9-1.67.52-2.45.47-1.53-.59-2.32-.61-1.58-.23-2.36-.23-1.56.71-2.35.73-1.56.12-2.35.14-1.61-.13-2.42-.06-1.6.17-2.4.27-1.69-.24-2.49-.13-1.47.9-2.27,1-1.66-.08-2.47,0c-.43,0-1.14-.46-1.48-.6,0-.52.51-1.09.51-1.54,0-.6-.64-1.3-.64-1.63.53-.38,1-.87,1.48-1.21L59.53,110c.44-.31,1.34-.34,1.9-.74-.74-.15-1.57-.22-2.28-.36s-1.44-.38-2.15-.52L54.84,108c-.74-.14-1.43-.42-2.15-.56s-1.6.26-2.32.12-1.37-.57-2.09-.71-1.38-.52-2.1-.66-1.61.35-2.33.21l-2.16-.44c-.72-.13-1.45-.45-2.18-.59a10.39,10.39,0,0,0-1.35-1.74m469.1-2.27c-.77,0-1.78.3-2.54.24s-1.47-.53-2.23-.62-1.58.14-2.34,0-1.5-.25-2.26-.37-1.5-.28-2.25-.4-1.42-.66-2.17-.77-1.65.47-2.41.36-1.4-.79-2.16-.88-1.47-.5-2.23-.58-1.64.75-2.4.69-1.5-.29-2.26-.32-1.52-.09-2.28-.09-1.53-.1-2.3-.06-1.47.33-2.22.35-1.52-.43-2.26-.41-1.49.23-2.23.25-1.49.35-2.24.36-1.5-.68-2.24-.68-1.49.74-2.24.74-1.48-.39-2.23-.39-1.49-.2-2.23-.21-1.5.44-2.25.43-1.48-.63-2.22-.64-1.5.13-2.24.12-1.5.3-2.25.29-1.49-.51-2.24-.51-1.7.2-2.45.2c0,.67-.26,1.48-.26,2.12s1,1.33,1,2-.74,1.32-.74,2,.34,1.32.35,2-.45,1.31-.43,2,.1,1.14.08,1.71-.26,1.14-.29,1.71.93,1.17.93,1.74a15.81,15.81,0,0,0-.12,1.68c.06.58-.23,1.32-.06,1.86.7-.17,1.54-.36,2.24-.54s1.26-.77,2-.94,1.61.23,2.31.06,1.28-.72,2-.89,1.38-.43,2.08-.61,1.55.07,2.25-.11,1.23-.83,1.93-1,1.4-.39,2.1-.57,1.5-.12,2.19-.31,1.26-.74,1.95-.94,1.64.22,2.33,0,1.13-1,1.82-1.21,1.58,0,2.26-.17,1.19-.82,1.86-1,1.44-.28,2.11-.52,1.27-.64,1.94-.88,1.29-.55,1.95-.81,1.33-.5,2-.77,1.3-.6,1.94-.88c.72-.13,1.62.31,2.33.19s1.28-.88,2-1,1.42-.32,2.13-.45,1.42-.34,2.14-.47,1.43-.3,2.14-.42,1.61.44,2.32.31,1.29-.84,2-1,1.59.37,2.3.25,1.31-.72,2-.85,1.65-.19,2.36-.32m-443.45,3c.68.23,1.72.17,2.41.39s1.2.82,1.89,1,1.51.13,2.2.34,1.36.48,2,.68,1.36.48,2.05.68,1.23.82,1.92,1,1.66-.27,2.35-.08,1.19.94,1.89,1.13,1.29.67,2,.85,1.71-.49,2.41-.31,1.34.54,2,.72,1.4.39,2.1.57,1.37.46,2.08.63,1.49.09,2.2.25,1.27.8,2,1,1.47.13,2.19.28,1.51,0,2.22.14,1.24,1,2,1.11,1.63-.43,2.34-.29,1.33.65,2,.78,1.38.45,2.1.59,1.54-.19,2.26-.06,1.29.85,2,1,1.48.1,2.2.22,1.51-.07,2.23,0,1.68.65,2.4.76c.09-.63.17-1.51.26-2.12s.34-1.22.43-1.83-.82-1.32-.74-1.93.89-1.15,1-1.77-.18-1.25-.09-1.87.63-1.18.71-1.81.08-1.29.16-1.92a4.44,4.44,0,0,0-1.37-1.55c-.57-.32-1.55.23-2.24.14a5.59,5.59,0,0,0-1.91-.13c-.66.11-1.48-.07-2.07.25a7.89,7.89,0,0,1-2.2.82,12.7,12.7,0,0,1-2.42.64c-.82,0-1.64-.65-2.46-.65s-1.48.4-2.22.4-1.49.09-2.23.09-1.49-.44-2.23-.43-1.48.49-2.23.49l-2.22,0c-.74,0-1.49-.28-2.23-.27s-1.49.37-2.23.37-1.49-.65-2.23-.65-1.48.62-2.23.62-1.48-.51-2.22-.51-1.49.41-2.23.41-1.49-.2-2.23-.2-1.49.17-2.23.17-1.48,0-2.22,0-1.49,0-2.23,0-1.49,0-2.23,0-1.48-.6-2.23-.6-1.48.63-2.23.63-1.69-.27-2.43-.27m446.83.23c0,.24.2.33.2.57.85,0,1.58.38,2.43.38s1.59-.31,2.45-.31c0-.24,0,0,0-.26-.84,0-1.61,0-2.46,0s-1.77-.33-2.62-.33" transform="translate(0 -0.47)"/><path id="パス_1178" data-name="パス 1178" class="cls-4" d="M347.72,16.31h8.61l2.14,0h2.14c.71,0,1.41,0,2.12,0s1.42,0,2.14,0,1.42,0,2.13,0l2.15,0c.45.61.88,1.23,1.41,1.94s.93,1.2,1.48,1.95h-6.66l-2.22,0-2.22,0-2.21,0h-6.59l-2.2,0h-2.2c0-.58,0-1.19,0-1.94v-2" transform="translate(0 -0.47)"/><path id="パス_1179" data-name="パス 1179" class="cls-5" d="M451,19.35c0,.67,0,1.3,0,1.93s0,1.25,0,1.93h-4.38l-2.17,0H429.23c0-.67,0-1.3,0-1.93s0-1.24,0-1.92h6.56l2.17,0h2.18c.72,0,1.44,0,2.17,0H451" transform="translate(0 -0.47)"/><path id="パス_1180" data-name="パス 1180" class="cls-6" d="M247.28,21.75c0-.67,0-1.29,0-1.92s0-1.22,0-1.91h6.9l2.29,0h2.29l2.29,0h4.62v3.85h-2.31c-.77,0-1.54,0-2.3,0h-2.3l-2.3,0h-2.28l-2.3,0-2.3,0h-2.31" transform="translate(0 -0.47)"/><path id="パス_1181" data-name="パス 1181" class="cls-7" d="M114.64,91.15c0-.67,0-1.3,0-1.92s0-1.24,0-1.93h14.18l2.39,0h2.38l-1.09,1.92c-.37.65-.72,1.26-1.1,1.9h-4.2c-.7,0-1.4,0-2.1,0l-2.09,0h-8.37" transform="translate(0 -0.47)"/><path id="パス_1182" data-name="パス 1182" class="cls-8" d="M220,19.32h17.38l-1.16,2-1.17,1.94H217.7l1.17-1.95c.41-.68.78-1.3,1.16-1.95" transform="translate(0 -0.47)"/><path id="パス_1183" data-name="パス 1183" class="cls-9" d="M167.34,24.65c0-.68,0-1.3,0-1.93s0-1.25,0-1.93l2.4,0,2.39,0,2.39,0h9.53c0,.69,0,1.3,0,1.92s0,1.25,0,1.93H174.5l-2.38,0h-2.38l-2.4,0" transform="translate(0 -0.47)"/><path id="パス_1184" data-name="パス 1184" class="cls-10" d="M99.32,23.21c0-.68,0-1.31,0-1.93V19.35h9.54l2.38,0H116v3.86H99.32" transform="translate(0 -0.47)"/><path id="パス_1185" data-name="パス 1185" class="cls-11" d="M412.23,82.85h4.27l2.14,0,2.12,0h6.36v1.93c0,.6,0,1.22,0,1.92h-17c.37-.68.7-1.33,1-1.94s.74-1.32,1.06-1.91" transform="translate(0 -0.47)"/><path id="パス_1186" data-name="パス 1186" class="cls-12" d="M246.84,88.49c-.89,0-1.75,0-2.59,0s-1.73,0-2.57,0-1.73,0-2.58.12a21.75,21.75,0,0,0-2.25.32c-.74.13-1.48.29-2.21.45s-1.47.31-2.21.45a4.05,4.05,0,0,1-.7-2,3,3,0,0,1,.74-2,7,7,0,0,1,1.77-1.48l2.1,0h10.49c0,.69,0,1.34,0,2.1v2.1" transform="translate(0 -0.47)"/><path id="パス_1187" data-name="パス 1187" class="cls-13" d="M313.15,20.44H298.44c0-.65,0-1.26,0-1.92V16.57h14.72c0,.57,0,1.17,0,1.92v1.94" transform="translate(0 -0.47)"/><path id="パス_1188" data-name="パス 1188" class="cls-14" d="M463.43,86.82l-1.18-1.38-1.19-1.35c.65-.69,1-1.33,1.29-1.34l2.36,0h11.83v2c0,.69,0,1.34,0,2H465.63l-2.2,0" transform="translate(0 -0.47)"/><path id="パス_1189" data-name="パス 1189" class="cls-15" d="M211.07,20.78l-1.15,1.3-1.14,1.28c-.41.47-.76.86-1.14,1.27H199l-2.19,0h-2.22c0-.68,0-1.31,0-1.93V20.79h16.53" transform="translate(0 -0.47)"/><path id="パス_1190" data-name="パス 1190" class="cls-16" d="M75.52,23.24V19.33H80l2.23,0h9L90,21.29c-.4.68-.77,1.31-1.16,1.95H86.61l-2.22,0H75.52" transform="translate(0 -0.47)"/><path id="パス_1191" data-name="パス 1191" class="cls-17" d="M143.53,89.7c0-.68,0-1.31,0-1.93V85.84h2.23l2.22,0h8.87v1.93c0,.62,0,1.25,0,1.93H143.53" transform="translate(0 -0.47)"/><path id="パス_1192" data-name="パス 1192" class="cls-18" d="M104.13,88.74v3.85H90.83c0-.68,0-1.3,0-1.92V88.73h13.31Z" transform="translate(0 -0.47)"/><path id="パス_1193" data-name="パス 1193" class="cls-19" d="M418.71,17.92v1.91c0,.63,0,1.24,0,1.93H405.43c0-.67,0-1.28,0-1.91s0-1.23,0-1.92h13.28" transform="translate(0 -0.47)"/><path id="パス_1194" data-name="パス 1194" class="cls-20" d="M451,83V86.8h-13.3V83H440l2.22,0,2.21,0H451" transform="translate(0 -0.47)"/><path id="パス_1195" data-name="パス 1195" class="cls-21" d="M360.77,86.94h-13c0-.65,0-1.27,0-1.92s0-1.22,0-1.93h13c0,.57,0,1.18,0,1.92,0,.56,0,1.2,0,1.94" transform="translate(0 -0.47)"/><path id="パス_1196" data-name="パス 1196" class="cls-22" d="M337.09,16.22v2.05c0,.67,0,1.31,0,2H324c0-.84,0-1.5,0-2,0-1.08.21-1.57.73-1.81a6.57,6.57,0,0,1,2.33-.24h2c.67,0,1.34,0,2,0h6.05" transform="translate(0 -0.47)"/><path id="パス_1197" data-name="パス 1197" class="cls-23" d="M281.48,88.26c-.42-.48-.8-.94-1.18-1.37s-.82-.92-1.2-1.34c.64-.7.95-1.34,1.28-1.34.69,0,1.38,0,2.08,0l2.08,0h8.35v4.08h-11.4" transform="translate(0 -0.47)"/><path id="パス_1198" data-name="パス 1198" class="cls-24" d="M165.8,89.7,167,88.4l1.18-1.3,1.16-1.3h4.49l2.24,0h4.5c.05.57.11,1.22.17,1.94s.11,1.25.18,2h-2.17l-2.15,0h-2.15l-2.15,0h-2.14l-2.16,0H165.8" transform="translate(0 -0.47)"/><path id="パス_1199" data-name="パス 1199" class="cls-25" d="M146.93,24.68V23c0-.58,0-1.13,0-1.68V19.63a8,8,0,0,1,2-.56,7.32,7.32,0,0,1,2.09,0,11.56,11.56,0,0,1,2,.53c.64.22,1.27.48,1.91.74s1.26.52,1.91.74c0,.58,0,1.16,0,1.78s0,1.15,0,1.79h-9.91" transform="translate(0 -0.47)"/><path id="パス_1200" data-name="パス 1200" class="cls-26" d="M487.06,86.48c0-.55,0-1.12,0-1.75s0-1.13,0-1.77h11.44c0,.84,0,1.51,0,2,0,1.07-.2,1.58-.73,1.83a7.09,7.09,0,0,1-2.34.22l-2.52,0-2.53,0-2.53,0c-.21,0-.4-.28-.77-.55" transform="translate(0 -0.47)"/><path id="パス_1201" data-name="パス 1201" class="cls-27" d="M269.08,84.4v3.85H257.47c0-.68,0-1.3,0-1.93s0-1.25,0-1.93h11.62" transform="translate(0 -0.47)"/><path id="パス_1202" data-name="パス 1202" class="cls-28" d="M381.62,21.77c0-.7,0-1.32,0-1.94s0-1.26,0-1.94h4.58l2.28,0h4.6c.05.56.11,1.2.18,1.93s.12,1.25.18,2h-4.73l-2.35,0h-4.74" transform="translate(0 -0.47)"/><path id="パス_1203" data-name="パス 1203" class="cls-29" d="M136.43,19.35v3.84H124.28c.4-.7.74-1.32,1.08-1.91l1.09-1.92h10" transform="translate(0 -0.47)"/><path id="パス_1204" data-name="パス 1204" class="cls-30" d="M305.09,86.83v-3.9h12.25l-1.17,2c-.41.67-.77,1.3-1.16,2l-2.48,0h-7.44" transform="translate(0 -0.47)"/><path id="パス_1205" data-name="パス 1205" class="cls-31" d="M483.88,19.22h9.51c0,.65,0,1.27,0,2s0,1.23,0,2c-.67.09-1.35.15-2,.2s-1.36.08-2.07.09-1.36,0-2.07,0l-2.07,0-2.07-.12L481,23.18l1.45-2,1.44-2" transform="translate(0 -0.47)"/><path id="パス_1206" data-name="パス 1206" class="cls-32" d="M337.25,83.07c0,.66,0,1.23,0,1.8v1.8H325.77l.88-1.8.9-1.8h9.68" transform="translate(0 -0.47)"/><path id="パス_1207" data-name="パス 1207" class="cls-33" d="M276.18,22c0-.76,0-1.42,0-2.05s0-1.32,0-2h9.73c0,.84,0,1.5,0,2,0,1.07-.2,1.57-.73,1.81a6.57,6.57,0,0,1-2.33.24h-6.68" transform="translate(0 -0.47)"/><path id="パス_1208" data-name="パス 1208" class="cls-34" d="M471.44,19.35c0,.68,0,1.3,0,1.93s0,1.24,0,1.92h-9.91V19.35h9.92" transform="translate(0 -0.47)"/><path id="パス_1209" data-name="パス 1209" class="cls-35" d="M211.41,90V86h2.48l2.46,0h5v1.83c0,.55,0,1.16,0,1.86a15.82,15.82,0,0,1-2.47.27c-.81,0-1.64,0-2.48,0s-1.65,0-2.49,0-1.65,0-2.47.08" transform="translate(0 -0.47)"/><path id="パス_1210" data-name="パス 1210" class="cls-36" d="M201.05,85.85v1.92c0,.61,0,1.25,0,1.92h-9.9c0-.68,0-1.3,0-1.92V85.84h9.9" transform="translate(0 -0.47)"/><path id="パス_1211" data-name="パス 1211" class="cls-37" d="M390.1,87.05c.36-.76.68-1.42,1-2.06s.64-1.32,1-2h7.75a13,13,0,0,1,.4,2.12,1.62,1.62,0,0,1-1,1.81,5.25,5.25,0,0,1-2.46.2c-.74-.07-1.48-.08-2.23-.08s-1.47,0-2.23,0-1.48,0-2.24,0" transform="translate(0 -0.47)"/><path id="パス_1212" data-name="パス 1212" class="cls-38" d="M80.47,88.87v1.85c0,.56,0,1.14,0,1.84l-2,.09-2,.09-2.06.07-2.06.08c0-.71,0-1.35,0-2s0-1.28,0-2h8.21" transform="translate(0 -0.47)"/><path id="パス_1213" data-name="パス 1213" class="cls-39" d="M379.48,86.92h-6.24v-4l2.06-.08,2.09-.09,2.09-.08v4.25" transform="translate(0 -0.47)"/><path id="パス_1214" data-name="パス 1214" class="cls-40" d="M535.92,106.08v1.76c0,.59,0,1.17,0,1.76v1.76l-1,.06c0-.59-.09-1.17-.14-1.76s-.11-1.17-.15-1.76-.09-1.17-.14-1.76l1.48-.06" transform="translate(0 -0.47)"/><path id="パス_1215" data-name="パス 1215" class="cls-41" d="M48,110.6v3.63h-8.2l-.85-1.67-.85-1.67-.85-1.68,2.16.29,2.15.26,2.15.29,2.16.27,2.14.28" transform="translate(0 -0.47)"/><path id="パス_1216" data-name="パス 1216" class="cls-42" d="M29.31,32.37v1.92c0,.62,0,1.24,0,1.91H21.09c0-.68,0-1.3,0-1.92s0-1.24,0-1.92h8.2" transform="translate(0 -0.47)"/></g></g></g></g></svg>