<svg xmlns="http://www.w3.org/2000/svg" xmlns:xlink="http://www.w3.org/1999/xlink" viewBox="0 0 202.36 1179.07"><defs><style>.cls-1,.cls-2,.cls-3,.cls-4{fill:none;stroke:#362514;stroke-width:3px;}.cls-1,.cls-10,.cls-11,.cls-2,.cls-3,.cls-5{isolation:isolate;}.cls-1{opacity:0.37;}.cls-2{opacity:0.52;}.cls-3{opacity:0.69;}.cls-5{opacity:0.77;fill:url(#名称未設定グラデーション_2);}.cls-6{opacity:0.36;}.cls-7{fill:#fff;}.cls-8{opacity:0.66;}.cls-9{opacity:0.78;}.cls-11{font-size:22px;fill:#362514;font-family:HarenosoraMincho-83pv-RKSJ-H, HarenosoraMincho;}</style><linearGradient id="名称未設定グラデーション_2" x1="-952.08" y1="1136.12" x2="-952.08" y2="1135.12" gradientTransform="matrix(131.86, 0, 0, -1179.07, 125633.43, 1339559.93)" gradientUnits="userSpaceOnUse"><stop offset="0" stop-color="#362514" stop-opacity="0"/><stop offset="0.73" stop-color="#362514" stop-opacity="0.97"/><stop offset="1" stop-color="#362514" stop-opacity="0.59"/></linearGradient></defs><g id="レイヤー_2" data-name="レイヤー 2"><g id="レイヤー_1-2" data-name="レイヤー 1"><line id="線_71" data-name="線 71" class="cls-1" x1="85.36" y1="384.61" x2="150.14" y2="385.06"/><line id="線_72" data-name="線 72" class="cls-2" x1="25" y1="592.89" x2="79.36" y2="592.61"/><line id="線_73" data-name="線 73" class="cls-3" x1="131.36" y1="820.61" x2="202.36" y2="820.61"/><line id="線_74" data-name="線 74" class="cls-4" x1="72.64" y1="1039.06" x2="128.36" y2="1038.61"/><path id="パス_1752" data-name="パス 1752" class="cls-5" d="M29,0c2.19,0,0,.34,0,.75L75.08,426.3l81.78,752c0,.42-1.77.76-4,.76s2-.34,2-.76L25,.75C25,.34,26.77,0,29,0Z"/><g id="楕円形_16" data-name="楕円形 16" class="cls-6"><circle class="cls-7" cx="71.36" cy="386.61" r="14.5"/><circle class="cls-4" cx="71.36" cy="386.61" r="13"/></g><g id="楕円形_17" data-name="楕円形 17" class="cls-8"><circle class="cls-7" cx="93.36" cy="592.61" r="14.5"/><circle class="cls-4" cx="93.36" cy="592.61" r="13"/></g><g id="楕円形_18" data-name="楕円形 18" class="cls-9"><circle class="cls-7" cx="117.36" cy="820.61" r="14.5"/><circle class="cls-4" cx="117.36" cy="820.61" r="13"/></g><g id="楕円形_19" data-name="楕円形 19"><circle class="cls-7" cx="142.36" cy="1037.61" r="14.5"/><circle class="cls-4" cx="142.36" cy="1037.61" r="13"/></g><g id="開業" class="cls-10"><text class="cls-11" transform="translate(0 393.06)">開業</text></g><g id="改装" class="cls-10"><text class="cls-11" transform="translate(148.86 983.61)">改装</text></g></g></g></svg>