<svg xmlns="http://www.w3.org/2000/svg" xmlns:xlink="http://www.w3.org/1999/xlink" viewBox="0 0 499.7 116.58"><defs><style>.cls-1{fill:none;}.cls-2{clip-path:url(#clip-path);}.cls-3{fill:#352413;}</style><clipPath id="clip-path" transform="translate(0 0)"><rect class="cls-1" width="500" height="117"/></clipPath></defs><g id="レイヤー_2" data-name="レイヤー 2"><g id="レイヤー_1-2" data-name="レイヤー 1"><g class="cls-2"><g id="グループ_1395" data-name="グループ 1395"><path id="パス_1234" data-name="パス 1234" class="cls-3" d="M410,97.3a1,1,0,1,1-.07-1.91H410c6,0,54.68-1,60.22-3.38a45.44,45.44,0,0,0,24-23.93,44.47,44.47,0,0,0,3.55-17.44V46.82a44.42,44.42,0,0,0-3.55-17.43,45.43,45.43,0,0,0-24-23.94,44.61,44.61,0,0,0-17.47-3.54A1,1,0,0,1,452.73,0h.06A46.37,46.37,0,0,1,471,3.7a47.33,47.33,0,0,1,25,24.94,46.22,46.22,0,0,1,3.7,18.19v3.82A46.18,46.18,0,0,1,496,68.83a47.3,47.3,0,0,1-25,24.94C465.23,96.22,416.34,97.3,410,97.3Z" transform="translate(0 0)"/><path id="パス_1235" data-name="パス 1235" class="cls-3" d="M361.64,116.57a1,1,0,0,1-.07-1.91h.07a8.6,8.6,0,0,0,0-17.2H46.91a46.37,46.37,0,0,1-18.22-3.7,47.26,47.26,0,0,1-25-24.94A46.14,46.14,0,0,1,0,50.64V46.82A46.18,46.18,0,0,1,3.7,28.64a47.3,47.3,0,0,1,25-24.94A46.37,46.37,0,0,1,46.91,0,1,1,0,0,1,47,1.91h-.06A44.61,44.61,0,0,0,29.44,5.45a45.43,45.43,0,0,0-24,23.94A44.42,44.42,0,0,0,1.91,46.82v3.82A44.43,44.43,0,0,0,5.46,68.08,45.44,45.44,0,0,0,29.44,92a44.43,44.43,0,0,0,17.47,3.54H361.64a10.51,10.51,0,0,1,0,21Z" transform="translate(0 0)"/></g></g></g></g></svg>