<svg xmlns="http://www.w3.org/2000/svg" viewBox="0 0 31.52 32.56"><defs><style>.cls-1{fill:#fff;}</style></defs><g id="レイヤー_2" data-name="レイヤー 2"><g id="レイヤー_1-2" data-name="レイヤー 1"><g id="コンポーネント_15_1" data-name="コンポーネント 15 1"><path id="パス_1" data-name="パス 1" class="cls-1" d="M8.59,0H22.92a8.76,8.76,0,0,1,8.6,8.88V23.67a8.77,8.77,0,0,1-8.6,8.89H8.59A8.75,8.75,0,0,1,0,23.67V8.88A8.75,8.75,0,0,1,8.59,0ZM22.92,29.61a5.84,5.84,0,0,0,5.73-5.94V8.89A5.82,5.82,0,0,0,22.92,3H8.59A5.82,5.82,0,0,0,2.86,8.88h0V23.67a5.83,5.83,0,0,0,5.72,5.94H22.92Z"/><path id="パス_2" data-name="パス 2" class="cls-1" d="M15.75,8.61a8.47,8.47,0,0,1,1.13.08,7.68,7.68,0,0,1,6.47,6.47,8.08,8.08,0,0,1-.44,3.93,7.43,7.43,0,0,1-3.7,4A7.68,7.68,0,1,1,15.76,8.56Zm0,12.28a4.59,4.59,0,0,0,4.61-4.59h0a3.82,3.82,0,0,0-.05-.68,4.58,4.58,0,0,0-3.88-3.88h-.67a4.61,4.61,0,0,0-.43,9.21h.43Z"/></g></g></g></svg>