<?xml version="1.0" encoding="UTF-8"?><svg xmlns="http://www.w3.org/2000/svg" viewBox="0 0 31.52 32.56"><defs><style>.i{fill:#362514;}</style></defs><g id="a"/><g id="b"><g id="c"><g id="d"><g id="e"><g id="f"><path id="g" class="i" d="M8.59,0h14.33c4.82,.09,8.67,4.06,8.6,8.88v14.79c.07,4.82-3.78,8.8-8.6,8.89H8.59C3.77,32.47-.08,28.5,0,23.67V8.88C-.07,4.06,3.77,.09,8.59,0Zm14.33,29.61c3.22-.06,5.79-2.72,5.73-5.94V8.89c.04-3.21-2.52-5.84-5.73-5.89H8.59c-3.2,.05-5.76,2.68-5.73,5.88h0v14.79c-.06,3.22,2.5,5.88,5.72,5.94h14.34Z"/><path id="h" class="i" d="M15.75,8.61c.38,0,.76,.03,1.13,.08,3.35,.5,5.97,3.12,6.47,6.47,.18,1.33,.03,2.68-.44,3.93-.68,1.75-2,3.18-3.7,4-3.78,1.92-8.4,.41-10.32-3.38-1.92-3.78-.41-8.4,3.38-10.32,1.08-.55,2.28-.83,3.5-.83v.05Zm-.01,12.28c2.53,.01,4.6-2.03,4.61-4.57v-.02h0c0-.23-.01-.46-.05-.68-.29-2.01-1.87-3.59-3.88-3.88h-.67c-2.54-.12-4.7,1.85-4.82,4.39-.12,2.54,1.85,4.7,4.39,4.82h.43v-.06Z"/></g></g></g></g></g></svg>