<svg xmlns="http://www.w3.org/2000/svg" viewBox="0 0 195.16 142.91"><defs><style>.cls-1{fill:#231815;}</style></defs><g id="レイヤー_2" data-name="レイヤー 2"><g id="レイヤー_1-2" data-name="レイヤー 1"><path class="cls-1" d="M55.68,141.66a1.8,1.8,0,0,0,1.91-2c0-1.48-1.55-1.86-2.64-2.31-1.31-.53-2.64-1.19-2.64-3s1.5-2.91,3.46-2.91a4.83,4.83,0,0,1,3,.82l-.53,1.06a4,4,0,0,0-2.38-.74,1.74,1.74,0,0,0-2,1.78c0,1.35,1.67,1.7,2.66,2.12,1.31.56,2.65,1.29,2.65,3.08,0,2.16-1.4,3.25-3.54,3.25a6.24,6.24,0,0,1-3.42-.88l.54-1.23A4.69,4.69,0,0,0,55.68,141.66Z"/><path class="cls-1" d="M64.56,131.6v11.31H63.25V131.6Z"/><path class="cls-1" d="M74.86,142.62,70,133.74v8.88H68.48v-11h1.94l4.91,8.85v-8.85h1.51v11Z"/><path class="cls-1" d="M87.05,133.35a4.28,4.28,0,0,0-2.51-.77c-2.37,0-3.31,2.13-3.31,4.53s1.06,4.55,3.3,4.55a4.27,4.27,0,0,0,2.54-.84l.52,1a5.08,5.08,0,0,1-3.2.95c-3,0-4.65-2.52-4.65-5.71,0-3.34,1.83-5.65,4.65-5.65a5.08,5.08,0,0,1,3.2.94Z"/><path class="cls-1" d="M91.71,141.55h5.62l-.12,1.07H90.28v-11h6.8L97,132.71H91.71v3.7h5v1.17h-5Z"/><path class="cls-1" d="M111.67,131.63h1.47v11h-1.46v-9.5a26.33,26.33,0,0,1-2.94,1.35v-1.33A15.85,15.85,0,0,0,111.67,131.63Z"/><path class="cls-1" d="M124.61,135a5,5,0,0,1-1.28,3.29l-3.51,4.29h-1.89l4.17-4.93a3.57,3.57,0,0,1-1.69.44,3.07,3.07,0,0,1-3.29-3.26,3.44,3.44,0,0,1,3.68-3.43C123.19,131.44,124.61,132.79,124.61,135Zm-3.79-2.46a2.15,2.15,0,0,0-2.22,2.26,2.07,2.07,0,0,0,2.12,2.26,2.16,2.16,0,0,0,2.33-2.32A2.1,2.1,0,0,0,120.82,132.58Z"/><path class="cls-1" d="M130,141.66a2.45,2.45,0,0,0,2.3-2.68,2.07,2.07,0,0,0-2-2.32,1.68,1.68,0,0,0-1.4.81h-1.64v-5.84h5.64v1.07h-4.18v3.44a2.92,2.92,0,0,1,1.74-.71,3.33,3.33,0,0,1,3.39,3.55,3.63,3.63,0,0,1-3.71,3.81,5.81,5.81,0,0,1-3.63-1.06l.58-1.13A4.65,4.65,0,0,0,130,141.66Z"/><path class="cls-1" d="M135.9,131.63h6.9v1.07l-3.31,9.92h-1.81l3.26-9.75h-5Z"/><path class="cls-1" d="M109.47,36.62c8.08,10.23-41.65,21.46-31.32,5.54,4.47-6.89,35-12.25,31.65-2.85"/><path class="cls-1" d="M110.66,43.8l-.56.56c-10.57,7.28-20.38,9.47-32,6.81,3.38,7.68,8.84,27,17,24.52C101.66,73.74,112.12,52.8,110.66,43.8Z"/><path class="cls-1" d="M132.24,35c-5.65.35-11.89,0-16.92,2.4a11.8,11.8,0,0,0-.23,4.53l.8-.31c7.4-1.67,19.81,1.7,17.79-5.74C133.21,35.14,132.79,35.17,132.24,35Z"/><path class="cls-1" d="M65.07,57.59c-2.85-3.22-9-6.24-13.51-4.87v0c-6,1.84-6,8.55-6,14.17,0,3,2.11,9.06,4.86,10.54a4.47,4.47,0,0,0,5.17,1.09c1.77-.68.31-2.77-.86-4.62A24.92,24.92,0,0,0,53.65,69L52.2,57.71c2.61,1.39,4,7.61,4.25,10.07.23,2-.53,5,.32,6.57,1.16,2.11,3.68,2.18,5.5,1.11C67.22,72.55,68.93,61.94,65.07,57.59Z"/><path class="cls-1" d="M188.59,61.73c-.71-3.43-5.7-10.54-9.57-10.75a5.14,5.14,0,0,0-4,.86c-1.43.91-.45,2.17.76,3.45A24.79,24.79,0,0,0,178,60.38l3.83,11.35c-2.73-1.11-5-7.21-5.75-9.66-.65-2.07-1.23-5.18-2.44-6.61-1.64-1.94-4.28-1.49-6,0C163.13,59.52,165.08,70.28,170,74c3.85,2.92,10,5.58,13.93,2.71C189.4,73.49,189.78,67.44,188.59,61.73Z"/><path class="cls-1" d="M190.58,116.29c-2.82,3.27-4.61-2.82-8.08-1.13-.55-.69-1.34-1.69-.34-2.38a22.53,22.53,0,0,0,7.08-3.26c.31-1.14-.82-2.27-2.23-2.48a6.34,6.34,0,0,0,.62-2.75c-1.24-.9-2.79.17-3.24,1.17-.82,1.41.59.27.66.58.72-.17-.83,2,1.27,2.55-.14.41-1.51.89-1.69,1.17-.79,0-1.58,1.24-2.13,0-1-1.14,2-3.13-.55-2.38-.45,0,.45-1.78,1.13-2.47.69-.35.45-1,.45-1.59-.34-.55-1.24-.79-1-1.68,5.06-1.34-2.13-4.51,2.93-5.85-.69-1.79-3.72-1.93-2.93-4.61,1.69-1.58,4.61-2.82,6.75-1.13,1.68,3,1,7.53,1.58,11.35-.72,5.23,1.75,10.49-.28,14.89m3.72-18.88c1.13-2.14.45-4.82-.45-6.74-4.81-7.43-14-1.14-20,.79-4.82,5.5-3.13,13.14-3.48,20.77-.24,2.14-2.13,4.27.55,6,.69,0,1.79.1,1.79-.8.55-7.29-2.13-14.62.35-21.32,2.58,1,3.61-4.27,6.74-2.93.55.69,1.13,1.79.55,2.69-.9,1.34-2.82,1.68-3.82,2.68.55.1.89.69,1.58.45,1.79,3-3,1.92-3.71,4.06.68.89,2.47.34,2.37,1.92,4.82,2.82-2.13,5.26-1.58,8.63,1.24,2.59,1.68-1.23,2.92-1.13,1,1,.35,2.58.55,3.82-1,1.34-3,.55-4.06,2.13,1.79,4.37,5.4-.79,8.43-.24,3.71-2.13,4.61,2.58,7.53,3.27,1.34.45,3.61.45,4.27-1.14-.55-7.46,1.34-15.23-.55-22.87"/><path class="cls-1" d="M15.91,93.93c.72.8-.55,1.93-1.34,1.93-2,.45-3.38-.79-5-1.68-.58-.66-1.13-1.79,0-2.14,2.48-1,4.89.28,6.3,1.89"/><path class="cls-1" d="M136.34,93.59c1.92,3.13-4.37,4.61-1,7.64-.45,2.68-2.93,5.5-.79,8.32-1.45,2.48-2.82,6.85-6,6.5a3.59,3.59,0,0,1-1.93-2.23c1-1.69,4.06-3.38,2.68-5.85-.79-.9-2.68-1-2.13-2.68,1-2.69,4.95-2.82,4.82-6-1.14-1.34-3.13-1.34-3.48-3.26.69-1.79,2.93-3.13,4.82-3.82a2.84,2.84,0,0,1,3,1.34"/><path class="cls-1" d="M47.93,100.33a20.55,20.55,0,0,0,3,9.43c.34,1.34.69,3.92-1.34,4.06A23.25,23.25,0,0,1,46.35,99a2.38,2.38,0,0,1,1.58,1.34"/><path class="cls-1" d="M64.65,110.34l-5.16.55a2.13,2.13,0,0,1-.24-2.13c1.24-2.48,5.5-1.69,4.61-4.82-.76-1.24-2.75-1.06-4-.65-1.13-.34-.93-1.82-.44-3.16,2.68-.11,4.6-2.14,7.08-.24-.2,3.61-.41,7.63-1.89,10.45m7-11.59L69,95.48c-5.75-.55-10.9.79-16.17,3,.11,1.34,2,.55,2.68,1.58a4.83,4.83,0,0,1,.9,4.61c-1.34,1.24-3.47.9-5.16,1.34.9,1.45,2.82,1.69,4.06,2.69.24,1.68-1.45,2.58-1.58,4,2.13,3.82,5.84-.44,9.42.8,1.34.24,1.69,1.44,2.68,2.47,1.14,0,2.48,0,3.14-1.13,1.58-5.16,4-10.53,2.71-16.17"/><path class="cls-1" d="M109.71,104.39c-1.44.69-1.24-.89-1.68-1.58a1.54,1.54,0,0,1,2.47-1.34,3.85,3.85,0,0,1-.79,2.92m3.72-7.19c-1.69-1-3.13.45-4.82.79a3.17,3.17,0,0,1-3.47-1.34c-1.14,3.58,1.13,6.85,0,10.46,1.23,3.71,4.61-.69,6.74,1.92,4.61-.55,2.13-5.4,4.26-8.08a5.37,5.37,0,0,0-2.71-3.75"/><path class="cls-1" d="M150.92,104.94c-.69-.24-.34-.69-.79-1,0-.89-.1-1.92.55-2.47,1.24-.45,1.24,1.13,1.79,1.58.38,1-.76,1.89-1.55,1.89m.24-9.42c.55,0,.79.55,1.14.79,0,.69.1,1.34-.55,1.68-1,.45-1.24-.69-1-1.34-.14-.69,0-.82.41-1.13m8.64,15.37c-.9-3.71-5.16-1.58-7.54-2.92.8-1.93,3.37-1.69,4.61-3.58a3.34,3.34,0,0,0-1.34-4.06c-6.29-1.44,2.58-2.68,1.58-5.6-.89-1.93-3-1.93-4.81-2.14-1.69-.79-.11-2.47-.79-3.47-1.69-.69-2-2.93-4.06-2.48-1,.24-1.24,1.24-1.14,2.13,2.14,1.69,1.14,4.61,1.35,7.09-.35,2.13,0,5.13-2.58,6.74-.49-2.82.85-5.67-.11-8.08-.58-1.48-1.93-4.27-4.06-3.27.45,1.93,3.37,4.16,1.14,6a1.81,1.81,0,0,1-2.14-.34c-.79-.79-1.23.34-1.34.79.79,1.68,2.48,2.37,4.06,3,.9,1.23-.69,2-.55,3.26-1.13-1.34-2.68-2.82-4.81-2.23-.25,1.24,1.34,2.54,1.89,3.33,2.3,2.76-3.92,2.38-3,5.1,1.34,1.68,3.65-1,5.12-1.28-.24,2.58-4.67,5.58-4.57,7.71,6,.76,6.88-5.16,7.47-9.6.93-1.13,1.61-2.54,2.54-3.54a4.47,4.47,0,0,1,.45,2.68c.34,5.4-1,10.56,2.23,14.83a8.63,8.63,0,0,0,4.06-1.93c-1-2.37-2.37-4.61-3.27-7,.11-.79.9-1,1.59-1.14,2.47.24,3.92,2.69,6.19,3.27,1.65-.1,2.2-1.69,1.86-3.27"/><path class="cls-1" d="M95.88,110.1c-.34-2.24,1.69-4.16,2.48-6.19-.45,1.72,0,5.54-2.48,6.19M101,98c.11-2.37,2.14-4.06,1.35-6.74-1.14-1.79-3.27-3.72-5.41-2.14A12.69,12.69,0,0,1,97.23,98c-.45,2.58-3.38,2.92-5.06,4.26a1.76,1.76,0,0,0,1,.55c3.71,1.93-1.14,5.27-1,8.09-1.14,1.58-2.48,3.92-4.37,4.61-1.13-2.58,3.13-3.79,3.23-6.47-.68-.1-1.79-.27-2.09-1.07.44-1.34,2.13-1.34,1.92-3-5-2.69,2.58-5.4.55-8.67a41.55,41.55,0,0,1-7.08,1.13c-1.35-.24-1.9,1.24-1.59,2.48.11,2.37,2.69,1.45,3.72,3.13.34,1.58-.9,2.24-1.79,3-.69,1.58.89,2.37,1.58,3.26,1.34,3.27-3,3.38-4.61,5.06a3.49,3.49,0,0,0,4.82,2.13c1,.8,1.68,2.38,3,2.24,2.92-1.44,2.13-5,4.61-6.74.55-.1,1.2-.79,1.51-.59,1.17.76.72,3.93,2.75,3.75a3.07,3.07,0,0,0,2.68-2.37c-.2-5,6.64-11.08,0-14.79"/><path class="cls-1" d="M32.07,99.89c-.55,1.89-2.68.68-4.06,1a1.36,1.36,0,0,1-.54-2.13c1.23-.55,5-1.55,4.6,1.14m-3.74,6.67c-1.35-.21-.52-1.17-.86-1.86a2.41,2.41,0,0,1,2.37-.34c-.14.82-.62,2-1.51,2.2m-4.72.86c-1.27.41-.34.21-1.61,0-.76-.14-.28-.55-.76-1.69-.14-.31,1.41-.55,2.68-.48,0,.45.38,2.17-.31,2.17m4.44-12.49c-1.93-1.44,1.24-2.48.24-4.06s-2-2.68-4.06-2.68a4.51,4.51,0,0,0-2.13,2.68h.79c1.34,1,1,2.58,1.13,4.06.56,2.38-3.16,2.65-3.26,3.58.17.79,1.41.31,2.61.86a11.53,11.53,0,0,1,.41,3.16c-5.43,1.62-2.71-4-5.16-4.61-1.34-.79-2.68.24-4.06.24-4.81,2.14-9.42,4.82-14,7.3-1.1,1.13-.27,1.2.55,1.13,2.82,0,6-2.58,8.6-2.37-1.55,3.85-6.47,7.09-6.23,10.11,1.1.76,1,.35,1.86-.14,2.45-2,2.51-3.43,5.44-5.22,1.58,3.13-2.14,6.94,1.13,9.77.45.79,1.14-.45,1.34-.9,1.24-1.89-.44-6.23.45-8.84,1.34-.24,3,1.82,3.58,1.07,1.1-1.86-4.16-4.06-3.27-6.75.89-1,1.34-2.47,2.92-2.13,2.69,2.82.69,9.43,6.2,9.43,2.23,2.47.34,6.4.55,9.66.55,1.45.89,3.37,2.68,3.82l.58-.1c.35-.21.28-.14.56-.79.54-4.06-1.14-7.88-.56-12.35,1.62-3.27,3.48.38,5.44-2.13,3.13-2.48,4.13-6.3,5.12-9.77-1.23-4.23-6.08-4.13-9.42-4"/><path class="cls-1" d="M25.6,68.13c-1.77-.74-3.62-1.37-5.41-2.07A18.73,18.73,0,0,1,16,63.52c-1.8-1.72-6.79-10.4-7.32-1.06C8.31,68.28,14.05,74.23,19.54,76c3.17,1,9.66.11,10.14-3.07a3.58,3.58,0,0,0,.11-.35C30.35,70.26,27.33,68.85,25.6,68.13Z"/><path class="cls-1" d="M28.55,56.89c-2.7-3.55-9.67-3.93-13.64-3.19-6.56,1.24.51,7.39,3.56,9.2,1.73,1,4.74,3.58,7.4,4.55l.13.08a2.7,2.7,0,0,0,.44.4,1.75,1.75,0,0,0,.44.33,2.22,2.22,0,0,0,2.57-1,4.33,4.33,0,0,0,1.21-2.12A12.75,12.75,0,0,0,28.55,56.89Z"/><path class="cls-1" d="M140.7,54.12l0,.07a3.61,3.61,0,0,0-2.6-.61,10,10,0,0,0-6.47,4.4c-2.65,3.93-1.82,11.58.28,15.32,3.47,6.17,7.25-3,8-6.7C140.62,63.46,143.77,56.27,140.7,54.12Zm3.3-.68c-1.05.85-1.29,6.05-1.28,8.74-.2,2.08-.57,5.21-1.28,6.73-1,2.07-6.28,8.24-1.67,8.24.16,0,.33.06.49.09a9.05,9.05,0,0,0,6.31-1.17,11.57,11.57,0,0,0,4.65-7.79,18.1,18.1,0,0,0,1.55-7.22C152.72,56.75,148.05,48.41,144,53.44Z"/><path class="cls-1" d="M53.55,25.7c.21.23.08.7-.42,1.4a7.86,7.86,0,0,1-1.22,1.46,6.55,6.55,0,0,1-2.57,1.52,2.39,2.39,0,0,1-2.67-.48,1.89,1.89,0,0,1-.43-1,2.66,2.66,0,0,1,0-1.16.71.71,0,0,1,.16-.31.15.15,0,0,1,.22,0l.1.15a2.76,2.76,0,0,0,.63,1c.49.55,1.39.24,2.67-.91a7.06,7.06,0,0,0,1.3-1.69,1.57,1.57,0,0,1,.23-.32,1.12,1.12,0,0,1,1-.25,1.66,1.66,0,0,1,.93.52m-5.26-3.8a.65.65,0,0,1,.12.49.85.85,0,0,1-.27.48,9.24,9.24,0,0,0-1.92,2.79.65.65,0,0,1-.14.23c-.08.05-.11.07-.18,0a.17.17,0,0,1,0-.16,3.66,3.66,0,0,1,0-1.23,2.43,2.43,0,0,1-1.21.05,2.49,2.49,0,0,1-1.12-.49,9.33,9.33,0,0,0,2.88-1.88,1.81,1.81,0,0,1,1-.53.83.83,0,0,1,.87.25"/><path class="cls-1" d="M57.75,14.29c.12.25,0,.58-.27,1a11.79,11.79,0,0,1-1.15,1.4c.26,1.38.55,3.17.87,5.41.14,1,.06,1.52-.29,1.71a.64.64,0,0,1-.7-.05,1.52,1.52,0,0,1-.61-.68,2.46,2.46,0,0,1-.2-1.5,17.18,17.18,0,0,0-.33-3.78,1.79,1.79,0,0,1-.34.2,1.85,1.85,0,0,1-1,.26.71.71,0,0,1-.62-.29c-.11-.21,0-.42.39-.59a3.47,3.47,0,0,0,1.24-1.18,7.94,7.94,0,0,0-.55-1.63.83.83,0,0,0-.39-.34,1.12,1.12,0,0,1-.33-.19.36.36,0,0,1,.16-.52,3,3,0,0,1,1.23-.17c.61,0,1,.13,1.08.31a.72.72,0,0,1,0,.57.65.65,0,0,0,0,.54,3,3,0,0,1,.68-.77.88.88,0,0,1,.62-.07.73.73,0,0,1,.52.35m6.57,4.37a.78.78,0,0,1-.08.74,2.27,2.27,0,0,1-.76.63,6.52,6.52,0,0,1-2.78.83A2,2,0,0,1,58.65,20a2,2,0,0,1-.18-1c0-.09,0-.16.05-.18s.17,0,.25.13c.39.7,1.28.68,2.71-.08A5,5,0,0,0,62,18.5c.25-.19.44-.3.51-.36a1.53,1.53,0,0,1,1-.08,1.18,1.18,0,0,1,.81.6m-2.76-4.25c.24.46,0,.89-.72,1.27-1.88,1-3,1.83-3.26,2.45-.07.15-.16.19-.2.07a1,1,0,0,1-.08-.29A3.85,3.85,0,0,1,58,15.76a4.87,4.87,0,0,1,1.72-1.58A1.7,1.7,0,0,1,60.81,14a.89.89,0,0,1,.75.46m-1.4-1.57a.73.73,0,0,1-.39,1,.83.83,0,0,1-.52.07,16.32,16.32,0,0,1-1.85-.82c.35-.16.72-.3,1.08-.47a2.93,2.93,0,0,1,.75-.22c.51,0,.83.14.93.43m.4-1.77a.63.63,0,0,1,0,.58.8.8,0,0,1-1,.48,8,8,0,0,1-1.8-.84,9.06,9.06,0,0,1,.86-.38,1.93,1.93,0,0,1,.9-.25c.52,0,.83.14,1,.41"/><path class="cls-1" d="M74.24,8.18a3,3,0,0,0-2.17,0,8.1,8.1,0,0,0-3.38,2.51c.24-.42.4-.68.46-.82a1.12,1.12,0,0,0,.09-.7c-.12-.37-.52-.5-1.18-.41A2.15,2.15,0,0,1,68,8,1.48,1.48,0,0,0,68,7.47c-.11-.32-.39-.5-.88-.6a2.16,2.16,0,0,0-1.11,0c-.31.11-.45.33-.35.61a1.33,1.33,0,0,0,.24.38,2.86,2.86,0,0,1,.28.55l.42,1.3a9.27,9.27,0,0,1-.89,1c-.54.34-.75.61-.7.84a.75.75,0,0,0,.59.42,1.21,1.21,0,0,0,.75,0c.09,0,.21-.15.38-.37a3.11,3.11,0,0,0,.41-.62l.13.4a5.59,5.59,0,0,1-1.08,2.2,1,1,0,0,0-.34.51,1,1,0,0,0,0,.62,1.09,1.09,0,0,0,.45.64.7.7,0,0,0,.65.13c.15,0,.27-.19.4-.41a12.92,12.92,0,0,1,1.32,1.16c.37.41.63.59.78.56s.33-.32.58-.85a1.75,1.75,0,0,0,0-1.11,4.92,4.92,0,0,0-.23-.63,5.57,5.57,0,0,1-.33-.73c-.19-.57-.33-1-.44-1.38a8.52,8.52,0,0,1,1.37-1.56,5,5,0,0,1,1.66-1,1.14,1.14,0,0,1,1.62.84A3.37,3.37,0,0,1,73.36,13a8.42,8.42,0,0,1-1.81,2.21c-.13.13-.2.24-.18.29s.1.07.27,0A7,7,0,0,0,75,13.31a3.7,3.7,0,0,0,.69-3.57,2.27,2.27,0,0,0-1.41-1.56m-6,6.66a1.53,1.53,0,0,1-.66-.06c.2-.45.34-.79.45-1l.29.86c0,.12,0,.18-.08.2"/><path class="cls-1" d="M84.65,6.67a7.35,7.35,0,0,1,0,3.81,8.71,8.71,0,0,1-1.33,2.58c-.07.11-.12.15-.18.16s-.2-.09-.1-.35a9.32,9.32,0,0,0,.23-2.72A14.84,14.84,0,0,0,82.87,7a13.16,13.16,0,0,0-.58-1.92c-.15-.31-.3-.46-.47-.4a1.48,1.48,0,0,0-.7.87A4.52,4.52,0,0,0,81,8.2a1.45,1.45,0,0,1,0,.75c-.08.23-.15.33-.3.36a1.13,1.13,0,0,1-1.06-.41A2.22,2.22,0,0,1,79,7.75,9.77,9.77,0,0,1,79,5.44a9.64,9.64,0,0,0,0-2.53,3.22,3.22,0,0,0-.22-.54c-.11-.23-.2-.36-.2-.39-.09-.29.06-.48.41-.57s.54.08.94.4a1.86,1.86,0,0,1,.65.83,2.33,2.33,0,0,1-.12,1,3.87,3.87,0,0,0-.18.83,2.09,2.09,0,0,1,1.34-1.36c1.3-.28,2.29.89,3,3.55"/><path class="cls-1" d="M98.27,3.44a4.39,4.39,0,0,0-3.17-1,5.66,5.66,0,0,0-3.74,1.45A4.21,4.21,0,0,0,90,7.3a2.26,2.26,0,0,0,.27,1.09c.18.33.34.69.52,1,.33.82.75,1.18,1.32,1.18s1.09-.42,1.69-1.24a9.31,9.31,0,0,0,1.33-2.56,6.16,6.16,0,0,0,.51-2.29,1.9,1.9,0,0,0-.21-.79c1.57-.06,2.39.85,2.45,2.66A4.12,4.12,0,0,1,96.73,9.2,7.44,7.44,0,0,1,94.41,11c-.06,0-.12.06-.12.09s.15.12.39.09a6,6,0,0,0,3.56-1.32A4.2,4.2,0,0,0,99.57,6.4a3.65,3.65,0,0,0-1.3-3M93.5,7c-.51,1.12-1,1.66-1.36,1.69a.62.62,0,0,1-.54-.39,2.18,2.18,0,0,1-.27-1,2.88,2.88,0,0,1,.24-1.14,3.67,3.67,0,0,1,.73-1.12A4,4,0,0,1,94,4a2.25,2.25,0,0,1,.06.36A5.33,5.33,0,0,1,93.5,7"/><path class="cls-1" d="M108.65.29a1.61,1.61,0,0,0,0,.25.43.43,0,0,1,0,.19,3,3,0,0,1-.16.59A8.12,8.12,0,0,1,108,2.61a4.11,4.11,0,0,1-.27.49,1.62,1.62,0,0,0-.28-.16,2.37,2.37,0,0,0-1.05-.42c-.21,0-.31,0-.33.23A.84.84,0,0,0,106,3a6,6,0,0,1,.13,2.24c-.14,1.26-.27,2.31-.42,3.11-.07.38-.23.88-.42,1.53l0,.15a2.31,2.31,0,0,0,.17.87c.13.5.34.73.61.76a.91.91,0,0,0,.57-.2,1.67,1.67,0,0,0,.32-.42c.24,0,.7,0,1.34,0s1.48.09,2.2.14c.12.29.23.6.37.95s.08.38.14.39a1.92,1.92,0,0,0,1.24-.5,1.84,1.84,0,0,0,.78-1.15c0-.27.07-.91.13-1.9s.06-2.09.13-3A5.31,5.31,0,0,1,114,4.2a.37.37,0,0,0,.08-.15c0-.15-.34-.46-1-.94a8.32,8.32,0,0,0-1.3-.6,1.29,1.29,0,0,0-.33,0,8.76,8.76,0,0,1-1.94.41c-.34.05-.64.08-.95.1.46-.28,1-.65,1.56-1.09a1.79,1.79,0,0,1,.71-.43c.19-.07.3-.15.31-.27s-.25-.46-.85-.83A5.26,5.26,0,0,0,109,0a.31.31,0,0,0-.37.29m-1.47,8.19a2,2,0,0,0,.35.1,5.6,5.6,0,0,0,.88,0c.55,0,1.16-.05,1.81-.12.12,0,.16,0,.17-.14.07-.62-.34-1-1.24-1.08a1.1,1.1,0,0,0-.28,0c-.5.09-1.05.15-1.63.2l.12-1.08a1.21,1.21,0,0,0,.36.1,4.54,4.54,0,0,0,.88,0c.55,0,1.16,0,1.78-.12.09,0,.15,0,.16-.14.08-.62-.34-1-1.23-1.11a1.1,1.1,0,0,0-.28,0c-.5.09-1,.15-1.57.21l.05-.48.07-.6a.84.84,0,0,0,.25,0,14.45,14.45,0,0,1,2.58-.28.61.61,0,0,0,.27,0,1.06,1.06,0,0,1,.53.16.66.66,0,0,1,.27.6c0,.61-.07,1.36-.18,2.29-.16,1.41-.28,2.4-.4,2.93-.05.15-.09.24-.19.28a1.15,1.15,0,0,0-.79-.45h-.31a13.56,13.56,0,0,1-1.67,0c-.34,0-.67,0-1,0a6.18,6.18,0,0,0,.19-1.31"/><path class="cls-1" d="M124.62,7a1.49,1.49,0,0,1,.42.29c.19.28.29.47.24.62a.83.83,0,0,1-.2.34c-.1.1-.18.17-.28.17-.6-.1-1.21-.17-1.84-.31a.31.31,0,0,1,.06.31s-.08.06-.23.05a1.15,1.15,0,0,0-.36.11l-.75.17a2.41,2.41,0,0,1,.55.65,2.67,2.67,0,0,1,.4.95,5.58,5.58,0,0,0,1.3-.5A5.62,5.62,0,0,0,125.22,9a.41.41,0,0,1,.31-.09c.2.07.45.37.83.87s.46.85.34,1.13c0,.11-.2.12-.48.1a16.62,16.62,0,0,0-1.76-.16c-.75,0-1.3-.07-1.68-.09a12.81,12.81,0,0,0,2,2.29,22.25,22.25,0,0,0,2.34,1.61c.44.3.67.47.64.56s-.62.15-1.73.07a11.27,11.27,0,0,1-1.8-.32c-.23-.08-.43-.33-.71-.77a20.65,20.65,0,0,1-.9-2l0,0a6.09,6.09,0,0,1-.21.73A4.15,4.15,0,0,1,121,15.27a1.61,1.61,0,0,1-1.25.23.34.34,0,0,1-.23-.36,9,9,0,0,0-.8-1.93c0-.12.13-.12.3-.07,0,0,0,.08.14.18a1.08,1.08,0,0,0,.54.29c.14.05.26,0,.42-.24a6.43,6.43,0,0,0,.58-1,9.49,9.49,0,0,1-1.83.24,13.86,13.86,0,0,1-2-.11,5.14,5.14,0,0,1-.89-.19c-.08,0-.13-.08-.12-.1a13.33,13.33,0,0,0,2.6-.6,7.89,7.89,0,0,0,2.2-1.15,7.3,7.3,0,0,1-1.23.2,11.67,11.67,0,0,1-1.6-.07,3.19,3.19,0,0,1-.68-.12c-.06,0-.08-.06-.07-.09a9.07,9.07,0,0,0,2-.53,6.5,6.5,0,0,0,1.9-1.07c-.39,0-.78.07-1.16.07a8,8,0,0,1-1.42-.11l-.75-.14-.15,0a7.61,7.61,0,0,0,1.23-.24,10.14,10.14,0,0,0,1.64-.48,6.89,6.89,0,0,0,.78-.36,1,1,0,0,1-.56-.72,1.25,1.25,0,0,1-.06-.52.12.12,0,0,1,.16-.08,15.49,15.49,0,0,0,2.44.57,11,11,0,0,0,1.3.1.35.35,0,0,0,.26.18M123.5,3a3.2,3.2,0,0,1,1,.59,2,2,0,0,1,.61.67.71.71,0,0,1,0,.57,1,1,0,0,1-.22.38c.72.14,1.5.26,2.31.4l.32.1c.26.08.64.46,1.16,1.13a4.15,4.15,0,0,1,.69,1.58c-.06.21-.32.22-.72.09a10.31,10.31,0,0,0-2.71-.46c-.14,0-.19-.09-.16-.18a3.53,3.53,0,0,1,.55-.42,1.85,1.85,0,0,0,.5-.48s0-.06-.05-.14a.91.91,0,0,0-.32-.2,17.78,17.78,0,0,0-2.66-.69c-.75-.15-1.74-.31-3-.46a1.8,1.8,0,0,1-.46-.05.26.26,0,0,1-.13-.07l-.31.37a2.84,2.84,0,0,1-.92.69.6.6,0,0,1-.39,0,1,1,0,0,1-.56-.53.91.91,0,0,1,0-.65.59.59,0,0,1,.26-.33,5.77,5.77,0,0,0,1.6-1.33c.1-.09.17-.13.26-.1s.3.25.38.59l0,.2c.84.24,1.84.47,3,.68a4.12,4.12,0,0,1-.12-.61,3.86,3.86,0,0,1-.1-1.27c0-.12.08-.13.19-.1"/><path class="cls-1" d="M134.08,17.35a.86.86,0,0,1,0,.59,3.53,3.53,0,0,1-.37,1,4.25,4.25,0,0,0-.65,1.31.78.78,0,0,0-.1.49.85.85,0,0,0,.26.63c.15.15.36.11.62,0,.17.13.51.38,1,.7.7.48,1.38,1,2.06,1.53.05,0,.09.07.15,0a1.69,1.69,0,0,0,.19-.83.25.25,0,0,0,0-.19,2.33,2.33,0,0,1,.9-.32,1.61,1.61,0,0,1,.63.05c.09,0,.16,0,.18,0,.16-.18.08-.69-.2-1.48a3.25,3.25,0,0,0-.7-1.25.74.74,0,0,0-.32-.13,4.12,4.12,0,0,1-1.14-.37,8.42,8.42,0,0,1-1.14-.64,2.8,2.8,0,0,0-.19-.4,3,3,0,0,0-.69-.8.34.34,0,0,0-.5.12M140,16.21a2.15,2.15,0,0,1-.14.65,1.38,1.38,0,0,1-.44.35c-.27.18-.55.35-.86.53-.81-.47-1.8-1.11-3-1.87-.22-.16-.44-.28-.61-.4s-.11-.05-.15,0a2.37,2.37,0,0,0-.11.78,1.76,1.76,0,0,0,.2.85s0,0,.12,0c.47.17.89.32,1.19.46a12.3,12.3,0,0,1,1.7,1c.63.46,1.25.95,1.85,1.46a2.87,2.87,0,0,1,.45.51,1.77,1.77,0,0,0,.37.41c.35.29.67.31.93,0,.1-.15.1-.45,0-.93a2.91,2.91,0,0,0-.41-.77,5.44,5.44,0,0,0-.82-.56c-.17-.08-.38-.2-.62-.34l.92-.08c.15,0,.36,0,.68-.06a.6.6,0,0,0,.27-.07c.11-.15.05-.37-.19-.77a3.94,3.94,0,0,0-.81-1c-.27-.19-.39-.24-.48-.16m-2.27-1.45a4,4,0,0,0-.36,1.08c-.15.56-.16.89,0,1,.4.32.77.33,1,0a.87.87,0,0,0,.23-.51,2,2,0,0,0-.19-.77,2,2,0,0,0-.51-.74c-.06-.08-.12-.09-.18,0m4.42.7a7.45,7.45,0,0,1-1.34-.52,21.25,21.25,0,0,1-2.27-1.45.1.1,0,0,0-.15,0,1.38,1.38,0,0,0-.13.5c-.09.38.1.78.58,1.2a5.18,5.18,0,0,0,1.08.67c.71.4,1.42.77,2.12,1.09a.38.38,0,0,0,.33-.06,1.37,1.37,0,0,0,.29-.24.73.73,0,0,0,0-.63,1.58,1.58,0,0,0-.29-.43.29.29,0,0,0-.23-.13M141,12.59a3.09,3.09,0,0,0-.23,1c-.07.5,0,.82.1.93a.82.82,0,0,0,1.28,0,.41.41,0,0,0,.09-.38,3.54,3.54,0,0,0-.4-.74,3.94,3.94,0,0,0-.67-.78.14.14,0,0,0-.17,0m-4.7-3.18a.22.22,0,0,0-.06.18,1.37,1.37,0,0,1-.26,1,8.46,8.46,0,0,1-.92,1.27,23.83,23.83,0,0,1-3.23,3.29,9.87,9.87,0,0,1-2.06,1.26,8.54,8.54,0,0,1-1.39.48l0,0a2.33,2.33,0,0,0,1,.24,4.92,4.92,0,0,0,2.62-.52c.18-.1.36-.19.57-.33a3.53,3.53,0,0,1-.19.72c-.1.4-.19.68-.21.81a1,1,0,0,0,.15.56.61.61,0,0,0,.5.14,1.44,1.44,0,0,0,.49-.32,1.33,1.33,0,0,0,.28-.54,3,3,0,0,0-.14-1c-.1-.26-.21-.52-.31-.74a12.37,12.37,0,0,0,1-.88c.3-.31.66-.64,1.05-1,.2.08.46.19.85.32a5.37,5.37,0,0,1,1,.4.29.29,0,0,0,.33,0,1.13,1.13,0,0,0,.07-.92,2.09,2.09,0,0,0-.34-.88s-.09,0-.17,0a5.78,5.78,0,0,1-.92.45l-.29.09c.43-.44.87-.94,1.35-1.45a1.34,1.34,0,0,1,.56-.37l.28-.17a.56.56,0,0,0-.05-.6,3.37,3.37,0,0,0-1-1.29c-.3-.25-.47-.33-.55-.21m-3.25,1.82a5.58,5.58,0,0,0-.5,1.2c-.23.62-.28,1-.16,1,.42.34.75.36,1.08,0a1.31,1.31,0,0,0,.33-.61,1.67,1.67,0,0,0-.11-.83,1.74,1.74,0,0,0-.43-.79c-.1-.08-.16-.09-.21,0m2,8.14.67.3a8.49,8.49,0,0,1,.89.46q.24.23-.09.6a1.72,1.72,0,0,1-.36.34,2.13,2.13,0,0,1-.4.3c-.15-.1-.34-.2-.54-.34-.36-.23-.64-.4-.86-.56Z"/><path class="cls-1" d="M148.74,29.45c.08.05.15.17.28.29.18.34.33.65.49,1a2.36,2.36,0,0,1,.27,1,1.08,1.08,0,0,1-.24.53,1.23,1.23,0,0,1-.68.38.83.83,0,0,1-.7-.2,1.29,1.29,0,0,1-.25-.78,3.92,3.92,0,0,1,.25-.77,5.18,5.18,0,0,0,.3-1.07.59.59,0,0,1,.16-.4.12.12,0,0,1,.12,0m-2.18-2a2,2,0,0,1,.32.39,3.33,3.33,0,0,1,.47,1.1,1.2,1.2,0,0,1-.29.78,1,1,0,0,1-.67.25,1.36,1.36,0,0,1-.76-.28s-.07-.16,0-.34a11.25,11.25,0,0,1,.62-1.73.56.56,0,0,1,.1-.19c.07-.06.16,0,.24,0M144,25.73a2,2,0,0,1,.32.39,3.79,3.79,0,0,1,.48,1,1.09,1.09,0,0,1-.28.76.91.91,0,0,1-.66.25,1.06,1.06,0,0,1-.74-.31c-.06,0-.06-.14,0-.3a9.2,9.2,0,0,1,.59-1.63.85.85,0,0,1,.09-.19c.08-.06.16-.08.22,0m-1-1.47c.05,0,.05.14,0,.24a2,2,0,0,1-.33.79,2,2,0,0,1-1,.52,1.65,1.65,0,0,1-.85.09,1.15,1.15,0,0,1-.46-.23,1,1,0,0,1-.34-.76,1.59,1.59,0,0,1,.3-.56.76.76,0,0,1,.37-.19,6,6,0,0,0,2,0c.12-.06.24,0,.39.08m9.22-.17a3.73,3.73,0,0,1,.65.89c.19.42.22.72.07.88s-.06,0-.11.07a2.11,2.11,0,0,0-.65.55c-.57.64-1.14,1.35-1.68,2.07a2.38,2.38,0,0,1-1.28.64,1.26,1.26,0,0,1-1-.1.48.48,0,0,1-.08-.55,5.64,5.64,0,0,0,.14-1.86c.09-.09.16-.08.27,0a1.29,1.29,0,0,0,.34.58.36.36,0,0,0,.5,0,6.39,6.39,0,0,0,1.12-1.1c.3-.35.63-.74,1-1.23a2.75,2.75,0,0,0,.38-.69.85.85,0,0,1,.09-.19c.05-.08.14-.06.24,0m-2-.71c.11.11.28.29.46.51s.25.5.16.58l-1.63,1.78a.61.61,0,0,1-.37.23.34.34,0,0,1-.42-.06c-.08-.05-.1-.24-.06-.58a1,1,0,0,1,.07-.38l.44-.4a4.53,4.53,0,0,0,1-1.42.68.68,0,0,1,.05-.19.19.19,0,0,1,.33-.07M147,20a2.44,2.44,0,0,1,.49.57,1.2,1.2,0,0,1,.19.27c.29.15.61.33.92.46a1.3,1.3,0,0,0,.42.13l.09,0a4.13,4.13,0,0,1,.49.75c.19.53.24.84.1,1s0,0-.08.06a3.86,3.86,0,0,0-1.14,1c-.09.08-.3.41-.69,1a6.46,6.46,0,0,1-.61.82,2,2,0,0,1-1,.45,1.37,1.37,0,0,1-1-.14,13.28,13.28,0,0,1,.27-2.06c0-.05.07-.06.1,0a1.14,1.14,0,0,0,.28.51.26.26,0,0,0,.35,0,5.26,5.26,0,0,0,1.05-1,12.06,12.06,0,0,0,1-1.39c.09-.09,0-.2-.13-.35a4,4,0,0,0-.36-.23,3,3,0,0,0-.6-.28l-.33.32,0,.06a1.78,1.78,0,0,0,.35.12l.08.05c.37.31.46.62.22.87a.52.52,0,0,1-.49.14,7.46,7.46,0,0,1-.65-.38l-.05,0s0-.06-.06-.07l-.32.33a3.23,3.23,0,0,0,.43.17l.07.05c.38.31.44.6.24.84a.44.44,0,0,1-.49.15,6.1,6.1,0,0,1-.69-.42l-.06,0c-.05,0-.05-.07-.11-.15a14.51,14.51,0,0,1-1.13,1,.74.74,0,0,1-.71-.07.51.51,0,0,1-.1-.61,1.67,1.67,0,0,1,.4-.67.63.63,0,0,1,.17-.14,5.22,5.22,0,0,0,1.07-.82A8.42,8.42,0,0,0,146,21.15a2.05,2.05,0,0,0,.33-.5,2.26,2.26,0,0,1,.25-.49c.17-.21.26-.23.37-.12m6.6.21a4.09,4.09,0,0,1,.75,1.06c.26.64.33,1,.22,1.15s-.17,0-.34,0a2.94,2.94,0,0,0-.74-.23l-1.27-.32c.91.59,1.69,1.1,2.31,1.47l.21.14a2.31,2.31,0,0,1,.57,1,1.29,1.29,0,0,1-.19,1.06c-.25.27-.46.31-.68.1s-.52-.52-1-1c-.26-.31-.49-.57-.68-.77a29.76,29.76,0,0,0-3.22-2.57,19.62,19.62,0,0,0-2.3-1.4,1.67,1.67,0,0,1-.49-.29,1.16,1.16,0,0,1-.3-.91c0-.42.06-.65.15-.73a.1.1,0,0,1,.15,0c.53.45,1.72,1.34,3.55,2.61l.91.59a1.14,1.14,0,0,0,.34-.07,3.17,3.17,0,0,0,1-.3,1.92,1.92,0,0,0,.36-.16.33.33,0,0,0,.07-.17,1.38,1.38,0,0,1,.11-.22c.12-.17.29-.17.46,0m-3.19-2.13a2.57,2.57,0,0,1,.53.74,1.62,1.62,0,0,1,.27.69.54.54,0,0,1-.15.4c-.39.43-.81.41-1.29,0-.09-.09-.08-.38.06-.86a2.49,2.49,0,0,1,.36-.95.16.16,0,0,1,.22,0"/></g></g></svg>