<svg xmlns="http://www.w3.org/2000/svg" xmlns:xlink="http://www.w3.org/1999/xlink" viewBox="0 0 179.8 275.03"><defs><style>.cls-1{fill:none;}.cls-2{clip-path:url(#clip-path);}.cls-3{fill:#191210;}.cls-4{writing-mode:tb;text-orientation:upright;glyph-orientation-vertical:0deg;font-size:36px;fill:#231815;font-family:HarenosoraMincho-83pv-RKSJ-H, HarenosoraMincho;letter-spacing:0.2em;}</style><clipPath id="clip-path" transform="translate(0.07 0.35)"><rect class="cls-1" width="181" height="275"/></clipPath></defs><g id="レイヤー_2" data-name="レイヤー 2"><g id="レイヤー_1-2" data-name="レイヤー 1"><g class="cls-2"><g id="グループ_1398" data-name="グループ 1398"><path id="パス_1236" data-name="パス 1236" class="cls-3" d="M179.45,268.54V48.72c0-12.39.1-24.85-.11-37.18,0-.94,0-2.2-.08-3.55a28.21,28.21,0,0,0-.54-5.8A2.05,2.05,0,0,0,179,1c0-2.19-2-1.12-3-1.12H33.43c-8,0-16.11-.1-24.12.11C8.7,0,7.88.05,7,.09,3.91.23,1.56.48,3.16,2.34c.93,1.08,1.59-.13,3.5-.33,4.68-.48,12.61.14,17.4.14,8.66,0,17-.12,25.7,0,9.45.13,19,0,28.42,0h86.23l10.26-.07a4.71,4.71,0,0,1,1.87.52c-.49,1.18.5,2.28.68,4.85.51,7.21-.15,19.43-.15,26.81,0,13.36.13,26.26,0,39.63-.13,14.57,0,29.22,0,43.8V250.62c0,2.18.08,13.72.08,15.82,0,1.5-.46,2.15-.78,3.95a2.75,2.75,0,0,0,.41,2l-.1,0c-1.56.49-4.2-.13-5.8-.13h-2.25a.56.56,0,0,0,0-.25c-.25-.52-.53-1-.81-1.56,0-.53,0-1.07,0-1.61.14-3,0-6,0-8.95V232.78c0-.95-.2-1.92-.2-2.85s.61-2.18-.1-2.84c-1-.92-3.39.2-4.55.36a31.69,31.69,0,0,1-4.77.14c-3.35-.05-6.69-.32-10-.32-7.57,0-14.88.12-22.45,0-8.26-.13-16.56,0-24.83,0H25.56l-9,.07c-.85,0-1.22-.43-2.23-.73s-1.48.67-1.35,1.39c-1.2-.06-1.16,1.28-1,2.05a25.1,25.1,0,0,1-.13,3.58c0,2.21.13,4.35,0,6.56-.14,2.41,0,4.84,0,7.25v22c0,.36.08,2.27.07,2.64-1.58-1.07-2.69.14-5.94.33-1,.06-2.06.1-3.21.13h-.5v-1.72c0-2.36,0-4.89.07-7.43.1-5.06.27-10.16.27-14,0-13.87-.13-27.27,0-41.16.14-15.14,0-30.35,0-45.5V24.67c0-2.26-.08-14.25-.08-16.43,0-1.55.46-2.23.79-4.1.22-1.27-.43-2.89-1.9-2.89C-.92,1.25.2,4.42.2,6.06V234.4C.2,247.27.1,260.21.32,273v.15c-.28-.26,2.47,2.34,1.35,1.24H3.25l2.12-.05c4-.1,7.25-.28,7.4-1.17H13c1.2,0,1.47-.13,1.46-.3,1.5.57.84-.2.95-.42.4-.81,1.22-2.54,2.06-4.26l.62-1.28a4.87,4.87,0,0,0,.2-1.86V236a57.75,57.75,0,0,0-.12-6.17c-.08-.7.51-.46.7,0s0,.9,0,1.29V239c0,1,0,2,.11,3,.18,1.75,1.62,1.61,3.19,1.61h6.27l.13-.12-.26.25a10.46,10.46,0,0,0,1.9-1.86,23,23,0,0,0,1.05-2.18l1-2.09.25-.52c.38-1.29.11-.69.19-1.13v-5.75c0-.24,0-.49,0-.73H149.46a10.93,10.93,0,0,1,0,2.14,14.55,14.55,0,0,0,0,2.47,14.87,14.87,0,0,0,.13,2.75l1,2.18c.65,1.34,1.31,2.7,2,4,2.73.15,5.46.14,8.2.14h.93c-.85.8,1.16-1.09.95-.93V230.7c0-.18,0-.8,0-1.35l.35,0,1-.05v36.17a9.84,9.84,0,0,0,1.42,4.48v3.24c2.86,2.7.8.75,1.45,1.35h.87c2.67,0,5.37.1,8-.11.2,0,.47,0,.76-.07.8-.11,1.44-.29,1.45-1.2a1,1,0,0,0,.25,0c2.31,0,1.19-3.05,1.19-4.63M15.94,240.17c-.14,2.42,0,4.85,0,7.27v14.07c-.17,1.7.37,4.3-.38,5.27l-1,2c-.05.13-.2.45-.36.83V236a57.38,57.38,0,0,0-.12-6.15.6.6,0,0,0,0-.12,12.33,12.33,0,0,1,1.33-.23h.79c.28,1.21-.26,3-.26,4.08,0,2.22.13,4.36,0,6.57m11.55-2.55c-.07,1-.07,2-.05,3l0,.78H20.82V230.7c0-.16,0-.68,0-1.18h7c0,.9-.34,1.92-.34,2.63,0,1.84.13,3.62,0,5.47m3.36-3.5a7.74,7.74,0,0,1,0,1.8,9.55,9.55,0,0,1-1,2.14,36.54,36.54,0,0,1-.35-4.56,31,31,0,0,1-.09-4.09,8.94,8.94,0,0,0,1.27,0c.07,1.43.12,2.88.19,4.27,0,.12,0,.26,0,.4m121.46-2c0,1.69.1,3.33,0,5l-.3-.61-.19-.39c0-.08,0-.15,0-.14v-5.75c0-.24,0-.48,0-.72h.78c0,.89-.33,1.91-.33,2.62m7.22,8.82h-4.85v-6.83c0-1.54.07-3.08-.07-4.62,1.93,0,3.86,0,5.78-.1V241Z" transform="translate(0.07 0.35)"/><path id="パス_1237" data-name="パス 1237" class="cls-3" d="M11.35,16.18v42c0,40.35,0,80.87,0,121.33,0,9.2-.1,18.46.12,27.63,0,.7,0,1.63.08,2.63.11,2.71.3,4.92,1.25,5a1.79,1.79,0,0,0,0,.23c0,2.19,1.73,1.12,2.63,1.12H140c7,0,14.08.1,21.07-.11.53,0,1.25,0,2-.07,2.71-.14,4.76-.39,3.36-2.25-.81-1.08-1.38.13-3.06.33-4.08.48-11-.14-15.19-.14-7.57,0-14.88.12-22.46,0-8.26-.13-16.56,0-24.82,0H25.56l-9,.07c-.84,0-1.22-.42-2.2-.72,0-.72-.68-1.54-.82-3.06-.51-5.35.15-14.43.15-19.92,0-9.92-.13-19.5,0-29.44.14-10.82,0-21.71,0-32.54V29.49c0-1.61-.08-10.19-.08-11.75,0-1.11.46-1.6.79-2.94a1.74,1.74,0,0,0-1.9-2.06c-2.32,0-1.19,2.27-1.19,3.44" transform="translate(0.07 0.35)"/><path id="パス_1238" data-name="パス 1238" class="cls-3" d="M169.31,208.85V16c0-1.69-.09-3.34-1.43-4.59H78c-16.76,0-33.63-.1-50.32.11-1.27,0-3,0-4.8.07-6.47.14-11.38.39-8,2.25l.22.1a.4.4,0,0,1,.23-.5l.11,0c7.24-1.14,15.16-.66,22.5-.58,6.84.08,13.7,0,20.54,0,18.07,0,35.53-.12,53.63,0,9.86.06,19.75.33,29.64.31l14.83-.29H164l3,.78V186c0,3.58,0,7.16,0,10.75,0,4.23.41,8.63,0,12.83-.13,1.33-1.81,5.24,1.13,5.24,2.31,0,1.19-3.9,1.19-5.92" transform="translate(0.07 0.35)"/><path id="パス_1239" data-name="パス 1239" class="cls-3" d="M164.52,211.89a3.33,3.33,0,0,0,.58-2.23c0-2.15.42-4.18.42-6.24v-70c0-30.67.06-61.54-.08-92.1,0-2.32,0-5.45-.05-8.78-.1-11.85-.28-20.83-1.58-14.71-.76,3.55.09,6.06.23,13.38.34,17.85-.1,48.13-.1,66.41,0,33.08.09,65,0,98.15l0,13.55V211c.07,0,.07.08,0,.18H124.34l-57.14,0H17.11c0,.07-.09.06-.19,0V15.37c.51,0,1.48.2,1.09-.39H104c6.34.63,36.45.32,41.93.32,3.91,0,5.61.29,10.31.5,3.18.13,7.24.26,7.24-.67,0-1.46-8-1-12.07-1H140.5c-8.88,0-17.76-.27-26.65-.27H48.65c-4.1,0-8.21-.26-12.32-.26-3.34,0-6.88.28-10.18,0a32.88,32.88,0,0,0-5.87.11c-1.48.12-3.85.06-4.94,1.1v197c.43.43-1-.8,1,1H159.87c2,0,3.79.23,4.65-.8" transform="translate(0.07 0.35)"/></g></g><text class="cls-4" transform="translate(90.57 30.13)">お知らせ</text></g></g></svg>