<?xml version="1.0" encoding="UTF-8"?><svg xmlns="http://www.w3.org/2000/svg" viewBox="0 0 30.23 27.19"><defs><style>.g{fill:none;stroke:#362514;stroke-linecap:round;stroke-linejoin:round;stroke-width:2px;}</style></defs><g id="a"/><g id="b"><g id="c"><g id="d"><g id="e"><path id="f" class="g" d="M29.23,1.01c-1.2,.93-2.56,1.66-4,2.14-1.49-1.96-4.1-2.67-6.38-1.74-2.34,1.06-3.81,3.43-3.7,6v1.4c-4.72,.07-9.12-2.36-11.58-6.39,0,0-5.14,12.59,6.43,18.25-2.58,1.95-5.77,2.94-9,2.81,8,4.88,17.29,3,22.36-4.29,2.28-3.53,3.43-7.66,3.31-11.86,0-.39-.04-.78-.1-1.16,1.33-1.45,2.25-3.23,2.66-5.16Z"/></g></g></g></g></svg>