<svg xmlns="http://www.w3.org/2000/svg" viewBox="0 0 30.23 27.17"><defs><style>.cls-1{fill:none;stroke:#fff;stroke-linecap:round;stroke-linejoin:round;stroke-width:2px;}</style></defs><g id="レイヤー_2" data-name="レイヤー 2"><g id="レイヤー_1-2" data-name="レイヤー 1"><path id="Icon_feather-twitter" data-name="Icon feather-twitter" class="cls-1" d="M29.23,1a13.58,13.58,0,0,1-4,2.14,5.42,5.42,0,0,0-6.38-1.74,6.29,6.29,0,0,0-3.7,6v1.4A13.35,13.35,0,0,1,3.57,2.41S-1.57,15,10,20.66a14,14,0,0,1-9,2.81c8,4.88,17.29,3,22.36-4.29A20.73,20.73,0,0,0,26.67,7.32a7.46,7.46,0,0,0-.1-1.16A11.13,11.13,0,0,0,29.23,1Z"/></g></g></svg>