<?xml version="1.0" encoding="UTF-8"?><svg xmlns="http://www.w3.org/2000/svg" viewBox="0 0 492.85 512"><defs><style>.d{fill:#362514;}</style></defs><g id="a"/><g id="b"><g id="c"><g><polygon class="d" points="0 355.2 0 405.52 492.85 254.03 492.85 203.71 0 355.2"/><path class="d" d="M0,486.12c0,8.21,3.9,15.93,10.5,20.81,6.61,4.89,15.14,6.34,23,3.93l441.07-135.58c10.86-3.34,18.28-13.39,18.28-24.75v-32.81L0,469.23v16.89Z"/><path class="d" d="M129.68,401.79c3.16-17.36-14.2-25.25-14.2-25.25l-33.13,42.6c14.2,11.03,44.17,0,47.33-17.36Z"/><path class="d" d="M227.09,374.39c3.17-17.36-14.2-25.25-14.2-25.25l-33.13,42.59c14.2,11.04,44.17,0,47.33-17.34Z"/><path class="d" d="M324.51,346.98c3.16-17.34-14.2-25.23-14.2-25.23l-33.13,42.6c14.2,11.04,44.17,0,47.33-17.37Z"/><path class="d" d="M421.92,319.6c3.16-17.36-14.2-25.25-14.2-25.25l-33.13,42.6c14.2,11.04,44.17,0,47.33-17.35Z"/><path class="d" d="M15.63,320.74L484.22,176.69c4.93-1.51,8.36-5.99,8.52-11.14,.17-5.16-2.95-9.85-7.77-11.69l-113.58-43.33c0,.1,0,.21,0,.31,0,60.94-34.14,91.84-101.48,91.84-57.06,0-90.27-22.2-99.08-66.07L3.62,300.57c-3.98,3.89-4.77,10.01-1.92,14.8,2.85,4.79,8.61,7.01,13.92,5.37Z"/><path class="d" d="M269.92,178.34c36.15,0,77.12-7.22,77.12-67.48,0-60.25-46.64-110.86-77.12-110.86s-77.11,50.61-77.11,110.85,40.96,67.48,77.11,67.48Z"/></g></g></g></svg>