<?xml version="1.0" encoding="UTF-8"?><svg xmlns="http://www.w3.org/2000/svg" viewBox="0 0 322.3 512"><defs><style>.d{fill:#362514;}</style></defs><g id="a"/><g id="b"><g id="c"><g><path class="d" d="M319.24,53.07c-.92-9.57-2-18.28-3.16-25.78-1.18-7.51-2.42-13.76-3.84-18.75l-2.44-8.53H12.5l-2.44,8.53c-1.43,4.99-2.66,11.24-3.84,18.75C2.72,49.74,0,83.35,0,117.39c0,10.2,.25,20.42,.8,30.39,2.12,37.61,14.47,71.16,25.76,101.04,5.66,14.94,11.08,28.98,15,42,3.93,13.03,6.32,25.01,6.31,35.8v123.57c0,17.03,6.93,32.56,18.1,43.71,11.15,11.16,26.68,18.11,43.72,18.1h102.94c17.03,0,32.56-6.94,43.71-18.11,11.17-11.15,18.11-26.68,18.11-43.71v-123.57c-.01-10.8,2.37-22.77,6.31-35.8,5.86-19.56,15.16-41.32,23.49-65.11,8.32-23.8,15.7-49.73,17.26-77.93,.55-9.97,.8-20.19,.8-30.39,0-22.68-1.21-45.21-3.06-64.32Zm-21.25,93.41c-1.82,33.15-13,64.32-24.27,94-5.62,14.84-11.22,29.3-15.52,43.56-4.29,14.26-7.3,28.38-7.3,42.59v123.57c0,10.6-4.27,20.11-11.21,27.07-6.96,6.94-16.46,11.2-27.06,11.21H109.68c-10.61,0-20.1-4.27-27.07-11.21-6.95-6.96-11.2-16.46-11.21-27.07v-123.57c-.01-14.21-3.02-28.33-7.3-42.59-6.45-21.38-15.84-43.24-23.81-66.09-8-22.86-14.61-46.59-15.98-71.47-.52-9.47-.76-19.27-.76-29.09,0-21.84,1.18-43.71,2.95-62.08,.88-9.17,1.91-17.46,2.99-24.38,.42-2.68,.85-5.15,1.27-7.38H291.55c.42,2.23,.85,4.7,1.27,7.38,3.26,20.81,5.95,53.73,5.94,86.46,0,9.81-.23,19.62-.76,29.09Z"/><path class="d" d="M106.54,136.34c1,31.59,7.58,61.86,13.95,91.15,6.05,27.84,11.76,54.31,12.82,81.48h-8.87c-1.65-27.17-10.5-53.63-19.86-81.48-9.83-29.28-20-59.56-21.55-91.15-.46-9.45-.66-19.02-.65-28.45H47.14c-.19,12.25-.02,24.87,.66,37.27,1.76,31.59,13.25,61.86,24.36,91.15,11.72,30.86,22.78,60,22.78,90.31v123.57c0,8.13,6.61,14.73,14.74,14.73h102.94c8.13,0,14.74-6.61,14.74-14.73v-123.57c0-30.31,11.06-59.45,22.77-90.31,11.11-29.28,22.6-59.55,24.36-91.15,.69-12.41,.85-25.03,.67-37.27H106.16c0,9.44,.08,18.99,.38,28.45Zm103.94,99.06c0,6.51-5.27,11.78-11.77,11.78s-11.77-5.27-11.77-11.78,5.27-11.77,11.77-11.77,11.77,5.28,11.77,11.77Zm-17.65-94.16c6.5,0,11.77,5.27,11.77,11.77s-5.27,11.76-11.77,11.76-11.77-5.27-11.77-11.76c0-6.5,5.27-11.77,11.77-11.77Zm-20.6,153.01c4.88,0,8.83,3.96,8.83,8.83s-3.95,8.82-8.83,8.82-8.83-3.95-8.83-8.82c0-4.87,3.95-8.83,8.83-8.83Zm0,102.99c4.88,0,8.83,3.95,8.83,8.82s-3.95,8.83-8.83,8.83-8.83-3.95-8.83-8.83c0-4.87,3.95-8.82,8.83-8.82Zm-35.31-29.43c0,4.88-3.95,8.83-8.83,8.83s-8.82-3.95-8.82-8.83,3.95-8.83,8.82-8.83c4.88,0,8.83,3.96,8.83,8.83Z"/></g></g></g></svg>