<?xml version="1.0" encoding="UTF-8"?><svg xmlns="http://www.w3.org/2000/svg" viewBox="0 0 512 353.1"><defs><style>.d{fill:#362514;}</style></defs><g id="a"/><g id="b"><g id="c"><path class="d" d="M507.24,36.88c-4.6-10.87-12.23-20.05-21.85-26.56C475.78,3.82,464.03-.01,451.6,0H51.17C44.16,0,37.38,1.43,31.24,4.03,22.03,7.93,14.27,14.39,8.75,22.54,3.24,30.69-.01,40.64,0,51.17v95.67c0,28.42,5.77,55.61,16.22,80.3,15.67,37.04,41.79,68.48,74.7,90.72,32.89,22.24,72.7,35.24,115.33,35.24,28.42,0,55.6-5.77,80.29-16.21,37.04-15.68,68.48-41.8,90.72-74.7,4.28-6.31,8.2-12.89,11.76-19.68,.57,0,1.13,.06,1.71,.06,16.67,0,32.68-3.4,47.21-9.54,21.8-9.23,40.26-24.57,53.34-43.92,13.07-19.33,20.74-42.78,20.72-67.82V60.4c0-8.27-1.69-16.28-4.76-23.52Zm-41.45,39.98v44.41c0,10.43-2.1,20.24-5.89,29.22-5.67,13.45-15.23,24.95-27.22,33.06-7.72,5.2-16.4,8.98-25.76,11.03,3.64-15.34,5.58-31.32,5.58-47.74V46.2h39.1c2.03,0,3.83,.4,5.52,1.11,2.52,1.07,4.74,2.89,6.27,5.17,1.53,2.29,2.4,4.91,2.41,7.93,0,.01,0,5.89,0,16.46Z"/></g></g></svg>