<?xml version="1.0" encoding="UTF-8"?><svg xmlns="http://www.w3.org/2000/svg" viewBox="0 0 512 446.57"><defs><style>.d{fill:#362514;}</style></defs><g id="a"/><g id="b"><g id="c"><path class="d" d="M499.24,127.27c1.77,2.25,3.38,4.28-.27-.39-3.25-4.09-1.92-2.39-.28-.3-14.11-17.55-36.73-24.81-56.9-33.79-26.48-11.8-52.95-23.6-79.43-35.39-26.46-11.81-52.95-23.6-79.42-35.4C261.12,12.27,240.82,2.97,216.63,.82c-46.5-4.13-96.54,7.62-138.05,27.71C43.38,45.57,15.41,70.75,2.36,107.94c-5.76,16.41-.42,36.38,10.12,42.27,8.01,4.47,18.49-.18,20,12.31,.31,2.53,.04,5.13,0,7.68-.44,18.53-2,162.02-.76,174.54,1.13,11.48,6.55,15.61,16.87,18.98,7.75,2.53,195.38,84.72,204.73,82.81,36.62-7.48,160.58-32.81,185.92-38,7.92-1.61,18.08-2.08,23.27-8.91,4.56-5.95,4.02-12.91,4.2-19.84,.94-40.3,1.87-80.6,2.82-120.89,.16-6.84,.32-13.68,.48-20.52,.03-1.65,.07-3.3,.1-4.95,.06-2.37,9.4-5.75,11.65-7.29,31.05-21.11,40.48-68.99,17.49-98.88Zm-41.09-26.19c.45,.15,.89,.31,1.36,.45-1.84-.53-2.29-.68-1.36-.45Zm25.36,83.8c-.47,1.1-.31,.72-.08,.15-4.15,9.57-13.36,15.88-23.31,19.03-10.42,3.27-14.85,10.1-15.09,20.57-.1,4.38-.2,8.75-.31,13.12-.58,24.63-1.15,49.26-1.74,73.9-.5,21.33-.99,42.66-1.49,63.99-.12,4.9-.53,4-5.72,5.05-11.71,2.4-23.4,4.8-35.1,7.18-45.27,9.25-90.54,18.5-135.79,27.74,.98-42.21,1.97-84.43,2.97-126.65,.2-9.04,5.85-45.82-11.1-43.14-9.38,1.38-20.95,0-25.23-9.43-4.53-9.98-.42-21.54,4.78-30.46,10.91-18.71,29.53-32.86,48.43-43.47,37.09-20.81,82.47-32.48,125.33-32.14,16.29,.14,33.13,2.23,48.07,8.87,17.92,7.96,33.67,25.49,25.43,45.49,.29-.68,.54-1.27-.07,.19Z"/></g></g></svg>