<svg xmlns="http://www.w3.org/2000/svg" xmlns:xlink="http://www.w3.org/1999/xlink" viewBox="0 0 342.15 201.19"><defs><style>.cls-1,.cls-10,.cls-3,.cls-6{fill:none;}.cls-2{fill:#352413;}.cls-10,.cls-3,.cls-6{stroke:#fff;}.cls-3{stroke-width:2px;}.cls-4{clip-path:url(#clip-path);}.cls-5{fill:#281a0f;}.cls-6{stroke-linecap:round;stroke-linejoin:round;stroke-width:2.13px;}.cls-7{fill:#27190e;}.cls-10,.cls-8,.cls-9{isolation:isolate;}.cls-10,.cls-9{font-size:20px;font-family:HarenosoraMincho-83pv-RKSJ-H, HarenosoraMincho;}.cls-9{fill:#fff;}.cls-10{stroke-width:0.3px;}</style><clipPath id="clip-path" transform="translate(0 0.25)"><rect class="cls-1" x="11.86" width="36.51" height="200.83"/></clipPath></defs><g id="レイヤー_2" data-name="レイヤー 2"><g id="レイヤー_1-2" data-name="レイヤー 1"><g id="長方形_642" data-name="長方形 642"><rect class="cls-2" x="47.15" y="28.16" width="295" height="161"/><rect class="cls-3" x="48.15" y="29.16" width="293" height="159"/></g><g id="グループ_1701" data-name="グループ 1701"><g class="cls-4"><g id="グループ_1699" data-name="グループ 1699"><path id="パス_1734" data-name="パス 1734" class="cls-5" d="M12.67,27.05V182.57a17.44,17.44,0,0,0,34.88,0V27.05" transform="translate(0 0.25)"/><path id="パス_1735" data-name="パス 1735" class="cls-6" d="M12.67,27.05V182.57a17.44,17.44,0,0,0,34.88,0V27.05" transform="translate(0 0.25)"/><path id="パス_1736" data-name="パス 1736" class="cls-7" d="M30.12.82A17.17,17.17,0,1,1,13,18h0" transform="translate(0 0.25)"/><path id="パス_1737" data-name="パス 1737" class="cls-6" d="M30.12.82A17.17,17.17,0,1,1,13,18h0" transform="translate(0 0.25)"/></g></g></g><g id="_二" data-name=" 二" class="cls-8"><text class="cls-9" transform="translate(0.15 26.16)">　二</text><text class="cls-10" transform="translate(0.15 26.16)">　二</text></g></g></g></svg>