<svg xmlns="http://www.w3.org/2000/svg" xmlns:xlink="http://www.w3.org/1999/xlink" viewBox="0 0 261 66.37"><defs><style>.cls-1,.cls-3{fill:none;}.cls-2{clip-path:url(#clip-path);}.cls-3{stroke:#040000;stroke-miterlimit:10;}</style><clipPath id="clip-path" transform="translate(0 0)"><rect class="cls-1" width="261" height="66.37"/></clipPath></defs><g id="レイヤー_2" data-name="レイヤー 2"><g id="レイヤー_1-2" data-name="レイヤー 1"><g class="cls-2"><g id="グループ_1694" data-name="グループ 1694"><line id="線_59" data-name="線 59" class="cls-3" x1="254.85" y1="10.87" x2="0.5" y2="10.87"/><path id="パス_1732" data-name="パス 1732" class="cls-3" d="M254.74,10.87a5.76,5.76,0,0,0,5.76-5.76A4.6,4.6,0,0,0,255.89.5a3.69,3.69,0,0,0-3.69,3.68h0" transform="translate(0 0)"/><line id="線_60" data-name="線 60" class="cls-3" x1="6.14" y1="55.5" x2="260.5" y2="55.5"/><path id="パス_1733" data-name="パス 1733" class="cls-3" d="M6.26,55.5A5.76,5.76,0,0,0,.5,61.26h0a4.6,4.6,0,0,0,4.61,4.61A3.69,3.69,0,0,0,8.8,62.19h0" transform="translate(0 0)"/></g></g></g></g></svg>