<svg xmlns="http://www.w3.org/2000/svg" viewBox="0 0 227.61 79.47"><defs><style>.cls-1,.cls-5{fill:none;stroke:#352413;}.cls-1{stroke-miterlimit:10;stroke-width:2px;}.cls-2,.cls-4{fill:#352413;}.cls-3,.cls-4,.cls-5{isolation:isolate;}.cls-4,.cls-5{font-size:21px;font-family:HarenosoraMincho-83pv-RKSJ-H, HarenosoraMincho;}.cls-5{stroke-width:0.4px;}</style></defs><g id="レイヤー_2" data-name="レイヤー 2"><g id="レイヤー_1-2" data-name="レイヤー 1"><g id="レイヤー_2-2" data-name="レイヤー 2"><g id="レイヤー_2-2-2" data-name="レイヤー 2-2"><circle id="楕円形_8" data-name="楕円形 8" class="cls-1" cx="39.55" cy="39.74" r="10.76"/><path id="パス_4530" data-name="パス 4530" class="cls-2" d="M2.74,45.83c4.45,4,13.43,4.41,18.42,4V60.1a1,1,0,0,0,.3.71L39.83,79.18a1,1,0,0,0,.7.29H226.61a1,1,0,0,0,1-1V1a1,1,0,0,0-1-1H40.53a1,1,0,0,0-.7.29L21.46,18.66a1,1,0,0,0-.3.71v9.86h-.61c-4.11,0-13.42.7-18,4.85A7.46,7.46,0,0,0,0,39.73,7.87,7.87,0,0,0,2.74,45.83ZM41,2H225.61V77.47H41L23.16,59.68v-10c5.84-.81,11.65-3.19,14.93-6.55a3.51,3.51,0,0,0,1.46.31,3.67,3.67,0,1,0-3.67-3.67h0a3.64,3.64,0,0,0,.67,2.09c-2.72,2.74-7.66,5-13.39,5.8V19.78ZM37.88,39.74a1.65,1.65,0,0,1,.77-1.4,5.66,5.66,0,0,1-.73,1.76A2.2,2.2,0,0,1,37.88,39.74Zm2.79-1.23a1.62,1.62,0,0,1,.56,1.23,1.68,1.68,0,0,1-1.68,1.67h-.09A7.65,7.65,0,0,0,40.67,38.51Zm-36.73-3C8,31.82,17.26,31.1,21.16,31.22V47.87c-5.16.42-13.34-.18-17.09-3.53A5.88,5.88,0,0,1,2,39.73a5.41,5.41,0,0,1,1.94-4.18Z"/></g></g><g id="ご利用のしおり" class="cls-3"><text class="cls-4" transform="translate(59.81 47)">ご利用のしおり</text><text class="cls-5" transform="translate(59.81 47)">ご利用のしおり</text></g></g></g></svg>